<svg width="82" height="83" viewBox="0 0 82 83" fill="none" xmlns="http://www.w3.org/2000/svg">
<path fill-rule="evenodd" clip-rule="evenodd" d="M79.1405 41.5004C79.1405 62.5652 62.0643 79.6415 40.999 79.6415C19.9341 79.6415 2.85742 62.5652 2.85742 41.5004C2.85742 20.4351 19.9341 3.3584 40.999 3.3584C62.0643 3.3584 79.1405 20.4351 79.1405 41.5004Z" fill="#5484BE"/>
<path fill-rule="evenodd" clip-rule="evenodd" d="M40.9991 3.48361C20.0033 3.48361 2.98263 20.5043 2.98263 41.5005C2.98263 62.4963 20.0033 79.5165 40.9991 79.5165C61.9953 79.5165 79.0155 62.4963 79.0155 41.5005C79.0155 20.5043 61.9953 3.48361 40.9991 3.48361ZM2.73242 41.5005C2.73242 20.3661 19.8651 3.2334 40.9991 3.2334C62.1335 3.2334 79.2658 20.3661 79.2658 41.5005C79.2658 62.6344 62.1335 79.7667 40.9991 79.7667C19.8652 79.7667 2.73242 62.6344 2.73242 41.5005Z" fill="black"/>
<path d="M76.5851 41.5003C76.5851 51.3261 72.6013 60.223 66.1616 66.6631C59.7219 73.1033 50.8246 77.0866 40.9988 77.0866C31.1726 77.0866 22.2757 73.1028 15.836 66.6631C9.39544 60.223 5.41211 51.3261 5.41211 41.5003C5.41211 31.6741 9.39544 22.7772 15.8356 16.3375C22.2757 9.89739 31.1721 5.91406 40.9984 5.91406C50.8246 5.91406 59.7215 9.89739 66.1612 16.3375C72.6013 22.7772 76.5851 31.6736 76.5851 41.5003ZM64.4834 41.5003C64.4834 35.0144 61.8553 29.1432 57.6052 24.8931C53.3559 20.6434 47.4847 18.0153 40.9988 18.0153C34.5129 18.0153 28.6417 20.6438 24.3916 24.8935C20.1419 29.1432 17.5134 35.0144 17.5134 41.5003C17.5134 47.9862 20.1419 53.8575 24.3916 58.1067C28.6417 62.3568 34.5129 64.9849 40.9988 64.9849C47.4847 64.9849 53.3559 62.3568 57.6052 58.1067C61.8553 53.8575 64.4834 47.9862 64.4834 41.5003Z" fill="white"/>
<path fill-rule="evenodd" clip-rule="evenodd" d="M40.9986 5.9631C21.3716 5.9631 5.46115 21.8735 5.46115 41.5005C5.46115 61.1275 21.372 77.0375 40.9986 77.0375C60.6256 77.0375 76.5356 61.1275 76.5356 41.5005C76.5356 21.8735 60.6256 5.9631 40.9986 5.9631ZM5.21094 41.5005C5.21094 21.7354 21.2334 5.71289 40.9986 5.71289C60.7638 5.71289 76.7858 21.7354 76.7858 41.5005C76.7858 61.2657 60.7638 77.2878 40.9986 77.2878C21.2338 77.2878 5.21094 61.2657 5.21094 41.5005Z" fill="black"/>
<path fill-rule="evenodd" clip-rule="evenodd" d="M41 16.4519C27.1662 16.4519 15.9514 27.6667 15.9514 41.5005C15.9514 55.3343 27.1662 66.5482 41 66.5482C54.8338 66.5482 66.0482 55.3347 66.0482 41.5005C66.0482 27.6663 54.8333 16.4519 41 16.4519ZM15.7012 41.5005C15.7012 27.5285 27.028 16.2017 41 16.2017C54.9715 16.2017 66.2984 27.5281 66.2984 41.5005C66.2984 55.4729 54.972 66.7984 41 66.7984C27.028 66.7984 15.7012 55.4725 15.7012 41.5005Z" fill="#5484BE"/>
<path fill-rule="evenodd" clip-rule="evenodd" d="M13.0041 30.8472L14.7748 31.5764L13.4487 36.1613L13.311 36.1212L13.3603 35.9499C13.4038 35.8004 13.4117 35.6722 13.3838 35.5654C13.3668 35.4892 13.3202 35.4207 13.2426 35.3597C13.1889 35.3139 13.0316 35.2529 12.7692 35.1775L9.3621 34.1919C9.09533 34.1147 8.92401 34.0803 8.84904 34.089C8.77406 34.0977 8.69908 34.137 8.62454 34.2076C8.55 34.2782 8.49159 34.3854 8.44975 34.5297L8.40049 34.701L8.26274 34.6609L9.06002 31.9051L9.19776 31.9452L9.13238 32.171C9.08879 32.3219 9.08094 32.4513 9.1084 32.5585C9.12964 32.6425 9.17884 32.7168 9.24789 32.7691C9.30151 32.8149 9.45887 32.8759 9.72129 32.9517L13.0259 33.9073C13.2909 33.9844 13.4644 34.018 13.546 34.0079C13.6279 33.9988 13.699 33.9548 13.7604 33.8759C13.8023 33.8192 13.8581 33.6684 13.9282 33.4247L14.0529 32.994C14.1322 32.7198 14.1497 32.477 14.1048 32.2661C14.0599 32.0551 13.9518 31.8524 13.78 31.6575C13.6079 31.4636 13.3337 31.2473 12.957 31.0089L13.0041 30.8472ZM11.7561 26.1276L13.6789 27.1773L13.7303 27.0831C13.8947 26.7823 13.9191 26.5125 13.8036 26.2741C13.6881 26.0356 13.4562 25.7967 13.107 25.5579L13.1754 25.4319L15.6592 26.7876L15.5904 26.9135C15.3053 26.7945 15.052 26.7322 14.831 26.7283C14.61 26.7239 14.4378 26.7653 14.3132 26.8521C14.1889 26.9384 14.0647 27.0949 13.9413 27.3207L15.2769 28.05C15.5381 28.1925 15.7037 28.2688 15.7743 28.2784C15.8449 28.288 15.9151 28.2731 15.9853 28.233C16.0555 28.1929 16.1274 28.1053 16.2011 27.9706L16.3554 27.6886C16.596 27.2474 16.6871 26.8381 16.6283 26.4611C16.5694 26.084 16.3628 25.7226 16.0075 25.3783L16.0781 25.2484L17.4656 26.2819L15.2386 30.3611L15.1126 30.2923L15.1976 30.1358C15.2721 29.9993 15.3079 29.8755 15.304 29.7652C15.304 29.6872 15.273 29.6105 15.2107 29.5342C15.1684 29.478 15.0276 29.3843 14.7879 29.2535L11.6746 27.5539C11.4584 27.4358 11.3228 27.3695 11.2675 27.3542C11.1803 27.3317 11.0881 27.3405 11.0068 27.3791C10.893 27.4314 10.7945 27.5338 10.7112 27.6868L10.6262 27.8433L10.5003 27.7745L12.6558 23.8256L14.0525 24.588L13.9836 24.7139C13.6061 24.5958 13.3101 24.5583 13.0943 24.5997C12.879 24.642 12.6754 24.7562 12.4832 24.9432C12.3699 25.0518 12.2147 25.2859 12.0181 25.6464L11.7561 26.1276ZM19.9839 22.8156L20.0955 22.9054L18.3375 25.0888L18.2254 24.9986L18.3375 24.86C18.4351 24.7388 18.4918 24.6237 18.5079 24.5139C18.5218 24.4376 18.5048 24.3561 18.4569 24.2702C18.4255 24.2074 18.303 24.0902 18.0907 23.9188L15.3284 21.6944C15.1117 21.52 14.967 21.422 14.8947 21.401C14.8223 21.3801 14.7382 21.3875 14.6418 21.4237C14.5455 21.4599 14.4505 21.5366 14.3563 21.6534L14.2443 21.7929L14.1327 21.7027L15.8907 19.5192L16.0027 19.6095L15.8916 19.7472C15.7944 19.8679 15.7377 19.9826 15.7224 20.092C15.7089 20.1683 15.7251 20.2507 15.7713 20.3383C15.8035 20.4015 15.9251 20.5183 16.1379 20.6896L18.9002 22.9145C19.1169 23.0889 19.262 23.1865 19.3348 23.2061C19.4076 23.2262 19.4922 23.2183 19.5881 23.1826C19.684 23.1469 19.779 23.071 19.8727 22.9542L19.9839 22.8156ZM21.1735 14.4313L22.3849 15.8493L22.2759 15.9422C21.8696 15.6475 21.4603 15.5049 21.0484 15.515C20.651 15.5193 20.2681 15.6645 19.9678 15.9247C19.7101 16.1444 19.5371 16.4199 19.4477 16.7508C19.3584 17.0816 19.3658 17.4077 19.4695 17.7303C19.6016 18.1439 19.827 18.5367 20.1452 18.909C20.4582 19.2755 20.7899 19.5698 21.1399 19.7912C21.4904 20.0131 21.83 20.116 22.1595 20.1012C22.4891 20.0859 22.8116 19.9438 23.1263 19.6744C23.3759 19.466 23.5704 19.1994 23.6926 18.8981C23.8112 18.6016 23.8722 18.2132 23.8748 17.7337L24.1769 18.0873C24.1525 18.5249 24.0618 18.9046 23.9044 19.2263C23.7475 19.5476 23.5025 19.8509 23.1691 20.1352C22.7305 20.5096 22.2663 20.7546 21.7768 20.8705C21.3016 20.9873 20.8023 20.9587 20.3435 20.7886C19.8885 20.6253 19.4842 20.3456 19.1709 19.9774C18.837 19.5868 18.6234 19.1286 18.5297 18.6029C18.4344 18.0913 18.4811 17.5633 18.6648 17.0764C18.8414 16.5951 19.1393 16.1677 19.5297 15.8354C19.8195 15.5878 20.1787 15.3894 20.6081 15.2399C20.8566 15.1536 21.0061 15.0886 21.0567 15.0455C21.0883 15.0189 21.1143 14.9861 21.1328 14.9492C21.1514 14.9122 21.1623 14.8719 21.1648 14.8306C21.1717 14.7421 21.1377 14.6405 21.0645 14.525L21.1735 14.4313ZM25.2261 12.4723L26.2444 14.4117L26.3399 14.3616C26.6433 14.2024 26.8128 13.9915 26.849 13.729C26.8852 13.4666 26.8242 13.1388 26.6664 12.7469L26.7932 12.6803L28.1088 15.1859L27.9815 15.2526C27.8106 14.9954 27.6341 14.8036 27.4523 14.6776C27.2705 14.5512 27.1044 14.4901 26.9528 14.4932C26.8015 14.4962 26.6114 14.5577 26.3835 14.6776L27.0909 16.025C27.2291 16.2883 27.325 16.4435 27.3778 16.4905C27.4339 16.5389 27.5047 16.5668 27.5787 16.5699C27.6594 16.5755 27.7675 16.5424 27.9035 16.4709L28.1886 16.3214C28.6336 16.0878 28.9361 15.7979 29.0961 15.4509C29.2565 15.1048 29.2844 14.6894 29.1798 14.2059L29.3106 14.1371L29.8925 15.7656L25.7771 17.9264L25.7108 17.7996L25.8686 17.7167C26.0064 17.6439 26.104 17.5611 26.1625 17.467C26.2056 17.402 26.2226 17.3209 26.213 17.2229C26.2087 17.1527 26.1437 16.9966 26.0164 16.7547L24.3674 13.6144C24.2532 13.3965 24.1769 13.2657 24.1394 13.2221C24.0792 13.1554 23.9977 13.1116 23.9088 13.0983C23.785 13.0791 23.6464 13.1096 23.4921 13.1907L23.3343 13.2731L23.2676 13.1462L27.2505 11.0552L27.9898 12.4636L27.8629 12.5303C27.6145 12.223 27.3887 12.0273 27.186 11.9427C26.9837 11.8586 26.7505 11.8407 26.4872 11.8895C26.3329 11.917 26.0735 12.026 25.71 12.2169L25.2261 12.4723ZM33.2303 8.91052L33.7664 10.6289L33.6038 10.6755C33.4042 10.264 33.1209 9.96847 32.7538 9.78887C32.3864 9.60928 32.0337 9.5683 31.695 9.66595C31.4335 9.74136 31.2465 9.87082 31.1336 10.0535C31.0207 10.2361 30.9906 10.4179 31.0429 10.5984C31.076 10.713 31.1318 10.8072 31.2116 10.88C31.3201 10.9785 31.4723 11.0622 31.6688 11.1323C31.8131 11.1816 32.1322 11.2505 32.6265 11.3394C33.3188 11.4619 33.8092 11.6245 34.0973 11.8276C34.3784 12.0246 34.5821 12.3133 34.6736 12.6441C34.7987 13.0756 34.7359 13.4967 34.4853 13.906C34.235 14.3153 33.8475 14.5956 33.324 14.7469C33.1674 14.793 33.0061 14.8216 32.8432 14.8319C32.6876 14.8411 32.4857 14.8319 32.2381 14.8036C32.1004 14.7883 31.9914 14.7922 31.9121 14.8153C31.8454 14.8345 31.7817 14.8807 31.722 14.954C31.6582 15.0375 31.6193 15.1374 31.6096 15.2421L31.4718 15.2818L30.9077 13.3276L31.0455 13.2875C31.3175 13.8049 31.6562 14.1615 32.0629 14.3568C32.4692 14.5525 32.8584 14.5965 33.2316 14.4888C33.5201 14.4056 33.7272 14.2617 33.8532 14.0573C33.9796 13.8528 34.0127 13.6475 33.9534 13.4413C33.9167 13.3169 33.8479 13.2043 33.7538 13.1149C33.6408 13.0098 33.5082 12.928 33.3637 12.8742C33.2011 12.8097 32.9282 12.743 32.5446 12.6746C32.0067 12.5791 31.6104 12.4797 31.3567 12.3764C31.12 12.2844 30.9042 12.1455 30.7225 11.968C30.5524 11.7966 30.4291 11.5843 30.3646 11.3516C30.2456 10.9388 30.297 10.5434 30.5194 10.1655C30.7417 9.78669 31.0852 9.53038 31.5507 9.39568C31.7207 9.34686 31.8912 9.3194 32.062 9.31373C32.1915 9.30894 32.355 9.32289 32.552 9.35427C32.7495 9.38609 32.8829 9.39132 32.9517 9.37171C32.9813 9.36485 33.0092 9.35184 33.0334 9.33351C33.0577 9.31519 33.0778 9.29196 33.0925 9.26535C33.1195 9.21391 33.1278 9.10668 33.1165 8.94365L33.2303 8.91052ZM40.7628 8.07227L40.8774 9.5282L40.7344 9.5391C40.6233 9.21042 40.5104 8.97765 40.3957 8.83946C40.2746 8.69662 40.1188 8.58734 39.9433 8.52212C39.8386 8.48246 39.6612 8.47286 39.4097 8.49248L39.0065 8.5243L39.3334 12.6711C39.3552 12.9488 39.384 13.121 39.4193 13.1881C39.4546 13.2552 39.5178 13.3106 39.6094 13.3559C39.7009 13.4012 39.8221 13.4178 39.9733 13.406L40.149 13.3921L40.1603 13.5351L37.3653 13.7552L37.3544 13.6122L37.5309 13.5983C37.6853 13.5861 37.8077 13.5481 37.8975 13.4845C37.9621 13.4418 38.0109 13.3738 38.0431 13.2801C38.0671 13.2138 38.0684 13.0447 38.0471 12.7727L37.7201 8.62543L37.3173 8.65725C36.9525 8.68602 36.6931 8.78367 36.5401 8.94931C36.3252 9.18165 36.2027 9.49812 36.1727 9.89872L36.0297 9.91006L35.9146 8.45412L40.7628 8.07227ZM45.0233 8.71174L44.7252 10.8826L44.8324 10.897C45.1711 10.9436 45.4327 10.8704 45.614 10.6781C45.7962 10.4855 45.9366 10.1834 46.0355 9.77231L46.1785 9.79192L45.7936 12.5953L45.6524 12.5761C45.6615 12.2674 45.6293 12.009 45.5551 11.8006C45.4802 11.5927 45.3808 11.4462 45.2552 11.3608C45.1301 11.2753 44.9392 11.2156 44.6846 11.1803L44.4776 12.6881C44.4375 12.9828 44.4248 13.165 44.441 13.2339C44.4584 13.306 44.4999 13.3699 44.5587 13.4152C44.621 13.4666 44.7282 13.5028 44.8804 13.5237L45.1986 13.5678C45.6968 13.6358 46.1114 13.5756 46.4431 13.386C46.7744 13.1972 47.0381 12.8751 47.2338 12.4209L47.3803 12.4409L46.9086 14.1048L42.3037 13.474L42.3225 13.3319L42.4994 13.3563C42.6537 13.3773 42.7819 13.3664 42.8835 13.3237C42.9567 13.2962 43.0182 13.2395 43.0665 13.1545C43.104 13.0952 43.1415 12.93 43.1781 12.6598L43.6598 9.14547C43.6929 8.9018 43.7065 8.75141 43.7017 8.69387C43.6914 8.6045 43.6504 8.52146 43.5857 8.45892C43.4963 8.37086 43.3651 8.31507 43.1934 8.29196L43.0164 8.26755L43.036 8.12545L47.4932 8.73572L47.2779 10.3115L47.1358 10.2923C47.1118 9.89785 47.0412 9.60754 46.9265 9.42097C46.8097 9.23483 46.6301 9.08488 46.3877 8.97198C46.2465 8.90485 45.9723 8.84295 45.5652 8.78716L45.0233 8.71174ZM52.3745 10.4685C52.7773 10.6206 53.0345 10.822 53.1465 11.0718C53.259 11.3215 53.2437 11.6367 53.1007 12.0164C53.0009 12.2788 52.871 12.4723 52.7106 12.5979C52.5502 12.7234 52.3719 12.7849 52.1757 12.7818C51.9791 12.7788 51.7076 12.7116 51.3601 12.5804L51.1465 12.4994L51.9726 10.3168L52.3745 10.4685ZM51.3741 12.9065L52.1317 15.8284L53.7049 16.4238L53.755 16.2896C53.6301 16.2359 53.5249 16.1448 53.4538 16.0289C53.4085 15.9487 53.3492 15.7669 53.2768 15.484L52.7167 13.3223C53.0506 13.3607 53.3313 13.335 53.5597 13.2452C53.9172 13.1022 54.1678 12.845 54.3082 12.4723C54.4241 12.1668 54.435 11.8664 54.3422 11.5722C54.2519 11.2806 54.0715 11.0252 53.8269 10.8425C53.5759 10.6511 53.1452 10.4397 52.5345 10.2082L50.1889 9.32071L50.1379 9.45497C50.3711 9.54302 50.5228 9.62454 50.5916 9.69864C50.6614 9.77318 50.6997 9.85208 50.7067 9.9349C50.7146 10.0182 50.6666 10.1956 50.5637 10.4667L49.3175 13.7596C49.2155 14.0307 49.1335 14.195 49.0738 14.2508C49.0068 14.3103 48.9221 14.346 48.8327 14.3524C48.7325 14.3637 48.5647 14.3249 48.3288 14.2356L48.2778 14.3698L50.8754 15.3528L50.9264 15.219C50.6932 15.1305 50.5415 15.0494 50.4726 14.9753C50.4082 14.9122 50.3675 14.8287 50.3576 14.739C50.3497 14.6562 50.3977 14.4788 50.5005 14.2072L51.0402 12.7805L51.3741 12.9065ZM64.3781 17.4347L63.1811 18.8645L63.0713 18.7725C63.2944 18.3231 63.3668 17.8955 63.2883 17.4909C63.2099 17.0864 63.0159 16.7538 62.7051 16.4936C62.4507 16.2788 62.1362 16.1477 61.8045 16.1183C61.4727 16.0834 61.138 16.1474 60.8425 16.3022C60.4567 16.5014 60.1066 16.7887 59.7919 17.1644C59.4829 17.5345 59.2479 17.9107 59.0879 18.2926C58.9271 18.6744 58.8817 19.0271 58.9519 19.3492C59.0208 19.6718 59.2152 19.966 59.5326 20.2319C59.7932 20.4499 60.0801 20.5933 60.3926 20.6613C60.7043 20.7293 61.0975 20.7249 61.5709 20.6474L61.2727 21.0039C60.8368 21.0527 60.4467 21.0262 60.1036 20.9246C59.7614 20.8235 59.4218 20.6321 59.0853 20.3509C58.6433 19.9808 58.3242 19.5637 58.1294 19.0999C57.9352 18.6508 57.8803 18.1538 57.972 17.6731C58.0572 17.1971 58.266 16.7519 58.5775 16.382C58.907 15.9879 59.3233 15.7011 59.8264 15.5211C60.3294 15.341 60.8385 15.3009 61.3538 15.4012C61.8579 15.4956 62.3292 15.7184 62.7221 16.0481C63.0142 16.2926 63.2696 16.6139 63.4884 17.0123C63.6144 17.2429 63.7029 17.3798 63.7539 17.4225C63.7854 17.4492 63.822 17.4692 63.8615 17.4814C63.901 17.4935 63.9425 17.4975 63.9836 17.4931C64.0721 17.4848 64.1676 17.4347 64.2687 17.3432L64.3781 17.4347ZM63.5691 24.724L63.4583 24.8151L61.6755 22.6512L61.7862 22.5601L61.8995 22.6979C61.9985 22.8177 62.0996 22.8971 62.2034 22.9346C62.2757 22.9633 62.359 22.9633 62.4527 22.9346C62.5207 22.9163 62.6606 22.8204 62.8707 22.6464L65.6078 20.3915C65.8231 20.2145 65.9474 20.0929 65.9831 20.0262C66.018 19.9595 66.0276 19.8754 66.0119 19.7738C65.9958 19.6722 65.9395 19.5637 65.8441 19.4477L65.7307 19.31L65.8415 19.2189L67.6235 21.3823L67.5136 21.4738L67.4003 21.337C67.3013 21.2175 67.2011 21.1386 67.0973 21.1016C67.0249 21.0728 66.9417 21.0719 66.8462 21.0994C66.7782 21.1177 66.6392 21.214 66.4291 21.3875L63.6911 23.6429C63.4767 23.8199 63.3524 23.9424 63.3175 24.0095C63.2835 24.0771 63.274 24.1616 63.2896 24.2623C63.3049 24.3635 63.3603 24.4716 63.4557 24.5875L63.5691 24.724ZM71.2912 27.3455L70.0166 28.0591L69.9468 27.934C70.1979 27.6956 70.3631 27.4955 70.4407 27.3333C70.5183 27.1712 70.5514 26.9898 70.5397 26.7897C70.531 26.6781 70.4664 26.5125 70.3431 26.2924L70.1456 25.9397L66.5162 27.9724C66.2734 28.1084 66.1287 28.206 66.083 28.2662C66.0372 28.3263 66.0132 28.4074 66.0097 28.5094C66.0071 28.611 66.0428 28.7282 66.1169 28.8607L66.2028 29.0146L66.0777 29.0848L64.7077 26.6385L64.8328 26.5683L64.9195 26.7226C64.9954 26.8582 65.0804 26.9528 65.1758 27.0081C65.2421 27.0491 65.324 27.0648 65.4226 27.0548C65.4923 27.0487 65.6466 26.9789 65.885 26.8455L69.5144 24.8129L69.317 24.4602C69.1382 24.1407 68.9416 23.9463 68.7263 23.8766C68.426 23.7785 68.0868 23.7998 67.7106 23.9402L67.6409 23.8151L68.9155 23.1015L71.2912 27.3455ZM73.8064 34.8737L73.6695 34.9138C73.5963 34.7503 73.5087 34.6335 73.4049 34.5646C73.2602 34.4687 72.9093 34.3532 72.3518 34.2185L70.1408 33.6418L68.8937 34.0062C68.6247 34.0851 68.4613 34.1479 68.4033 34.195C68.3462 34.2416 68.3043 34.3135 68.2791 34.4112C68.2525 34.5084 68.2594 34.6252 68.3004 34.7629L68.3845 35.0524L68.2468 35.0925L67.402 32.2015L67.5389 32.161L67.6182 32.4304C67.6627 32.5817 67.7237 32.6937 67.8039 32.7665C67.8593 32.8218 67.936 32.8554 68.0345 32.868C68.1034 32.8776 68.2695 32.8445 68.5319 32.7678L69.5654 32.4661L71.4359 30.6018C71.8047 30.2317 72.0131 29.9858 72.0627 29.8642C72.1111 29.7421 72.1129 29.5987 72.0671 29.4322L72.2048 29.3921L72.9276 31.8659L72.7907 31.906L72.7585 31.7953C72.714 31.6453 72.6612 31.5468 72.6002 31.4997C72.5379 31.4531 72.4834 31.4365 72.4341 31.4513C72.3404 31.4784 72.1351 31.6492 71.8186 31.9622L70.3858 33.3955L72.2179 33.8776C72.6717 33.9962 72.962 34.0367 73.088 34.0001C73.1577 33.9796 73.2061 33.9295 73.2327 33.8501C73.2719 33.7451 73.2641 33.5747 73.2096 33.3397L73.3465 33.2996L73.8064 34.8737ZM13.0643 46.903L10.9039 47.3389L10.9401 47.5176C10.9863 47.7465 11.0591 47.9265 11.1589 48.0564C11.2587 48.1876 11.4017 48.2861 11.5892 48.3528C11.7757 48.42 12.0146 48.4396 12.3049 48.4125L12.3333 48.5538L9.64893 49.0952L9.62103 48.9548C10.121 48.8031 10.4305 48.6039 10.55 48.3563C10.6684 48.1148 10.7021 47.8404 10.6459 47.5773L10.6101 47.3986L8.98678 47.7256C8.71391 47.7809 8.54652 47.8302 8.48418 47.8738C8.42185 47.9174 8.37433 47.9871 8.34033 48.0839C8.30677 48.1802 8.30459 48.3018 8.33423 48.4483L8.36954 48.6218L8.22874 48.6505L7.67383 45.9021L7.81463 45.8734L7.84993 46.0486C7.88045 46.2012 7.93276 46.3184 8.00686 46.4004C8.05699 46.4601 8.13022 46.4993 8.227 46.5181C8.29587 46.5333 8.46369 46.5146 8.73134 46.4601L12.2081 45.7587C12.4806 45.7034 12.648 45.655 12.7108 45.6123C12.7731 45.5695 12.821 45.5007 12.855 45.4035C12.8886 45.3063 12.8903 45.1846 12.8607 45.0373L12.8254 44.8621L12.9662 44.8342L13.8663 49.2953L12.3455 49.6017L12.3145 49.4483C12.6637 49.3393 12.9091 49.1928 13.0503 49.008C13.1916 48.8232 13.2687 48.5812 13.2818 48.2818C13.2888 48.1174 13.25 47.8236 13.1645 47.4008L13.0643 46.903ZM15.4343 54.2276C15.389 54.4743 15.2347 54.7315 14.9714 55.0013C14.7076 55.2694 14.2539 55.5549 13.6105 55.8561C13.0699 56.1089 12.6035 56.2554 12.2129 56.2955C11.8219 56.3356 11.5007 56.2864 11.2491 56.1473C11.0526 56.0383 10.8965 55.8605 10.7814 55.6142C10.6105 55.248 10.6162 54.898 10.7989 54.5654C11.0595 54.0885 11.6049 53.6552 12.4353 53.2668C13.134 52.9408 13.7142 52.7843 14.1758 52.7987C14.739 52.8174 15.1244 53.0497 15.3323 53.4944C15.4452 53.7363 15.4792 53.9808 15.4343 54.2276ZM14.018 51.8436C13.3045 51.5772 12.5861 51.613 11.8625 51.9517C11.2178 52.2529 10.7483 52.7028 10.4554 53.3013C10.0848 54.058 10.1049 54.8753 10.5146 55.7524C10.9235 56.6259 11.5512 57.1573 12.3986 57.3452C13.0377 57.4864 13.6658 57.4132 14.2848 57.1237C15.0089 56.7859 15.498 56.2606 15.7534 55.5505C16.008 54.8404 15.94 54.1042 15.5485 53.3414C15.2412 52.609 14.7312 52.1104 14.018 51.8436ZM19.5432 60.3364C19.5628 60.5866 19.4795 60.8752 19.2934 61.2021C19.1073 61.5299 18.7415 61.9213 18.1962 62.376C17.7381 62.7592 17.3248 63.0198 16.9569 63.1585C16.589 63.2971 16.2665 63.3311 15.9875 63.2613C15.7691 63.206 15.5729 63.0739 15.3986 62.8655C15.1396 62.5556 15.0559 62.216 15.1475 61.8472C15.2774 61.3194 15.6941 60.7618 16.3981 60.1742C16.9901 59.6795 17.5114 59.38 17.9613 59.2758C18.5105 59.1507 18.9425 59.2767 19.2572 59.6529C19.4285 59.8586 19.524 60.0862 19.5432 60.3364ZM17.5646 58.3935C16.807 58.3186 16.1217 58.5365 15.508 59.0491C14.9618 59.5055 14.6231 60.0596 14.4932 60.7126C14.328 61.5391 14.556 62.3241 15.1762 63.0673C15.7948 63.808 16.538 64.1606 17.405 64.1257C18.0589 64.0991 18.6478 63.8677 19.1722 63.43C19.7855 62.9183 20.1247 62.2858 20.1896 61.5338C20.255 60.7819 20.0004 60.0875 19.4272 59.4497C18.9434 58.8207 18.3222 58.4685 17.5646 58.3935ZM26.3298 65.6318L25.4659 66.8092L25.3499 66.7251C25.4803 66.4034 25.5474 66.1531 25.5504 65.9731C25.5535 65.7931 25.5086 65.6148 25.4144 65.4374C25.3612 65.3393 25.2331 65.2151 25.03 65.066L24.7039 64.8267L22.2428 68.1801C22.078 68.405 21.9873 68.5537 21.9703 68.6269C21.9529 68.701 21.9647 68.7852 22.0043 68.8789C22.044 68.9726 22.1251 69.0646 22.2476 69.1539L22.3892 69.2586L22.3047 69.3745L20.0445 67.715L20.1295 67.5999L20.2725 67.7045C20.3976 67.7956 20.5148 67.8467 20.6242 67.858C20.701 67.868 20.7829 67.8479 20.8683 67.7983C20.9294 67.7634 21.041 67.6365 21.2022 67.416L23.6634 64.0625L23.3373 63.8232C23.0422 63.607 22.7824 63.5115 22.5575 63.5373C22.2432 63.5721 21.9442 63.7321 21.6595 64.0159L21.544 63.9309L22.408 62.7535L26.3298 65.6318ZM29.3498 67.4504C29.7003 67.5978 29.9383 67.7416 30.0647 67.8828C30.1911 68.0232 30.2661 68.1832 30.2914 68.3606C30.3158 68.5384 30.2813 68.7368 30.1863 68.9582C30.0917 69.1788 29.971 69.3423 29.8236 69.4477C29.6725 69.5547 29.493 69.6143 29.308 69.619C29.1109 69.6282 28.8407 69.5585 28.4972 69.412L29.3498 67.4504ZM30.8724 70.0131C31.1266 69.9007 31.3049 69.7245 31.4073 69.4844C31.5045 69.2572 31.528 69.0136 31.4784 68.7529C31.4278 68.4913 31.3015 68.2503 31.1152 68.0598C30.923 67.8571 30.5438 67.6348 29.9775 67.3933L27.6084 66.3803L27.5521 66.5123C27.7814 66.6104 27.9292 66.698 27.995 66.7756C28.0608 66.8541 28.0953 66.9347 28.0988 67.0202C28.1018 67.1043 28.0456 67.2826 27.9296 67.5533L26.5556 70.7664C26.4397 71.0379 26.3503 71.2005 26.2871 71.2559C26.2243 71.3104 26.1424 71.3418 26.0417 71.3496C25.941 71.3575 25.7745 71.3112 25.5422 71.2127L25.4859 71.3448L27.9981 72.4193C28.6977 72.7184 29.2945 72.799 29.7875 72.6621C30.1907 72.5462 30.4718 72.3021 30.6314 71.9289C30.7826 71.5763 30.7678 71.2306 30.5882 70.891C30.464 70.6535 30.1885 70.3793 29.7626 70.0667C30.2482 70.1443 30.6183 70.1265 30.8724 70.0131ZM29.1663 70.1526C29.3206 70.3069 29.4056 70.4957 29.4213 70.7197C29.4355 70.9537 29.3928 71.1876 29.2971 71.4015C29.2112 71.6024 29.09 71.7676 28.9344 71.8954C28.7846 72.0201 28.6003 72.0962 28.4061 72.1133C28.2079 72.1311 28.0085 72.0985 27.8263 72.0187C27.6986 71.9634 27.6162 71.8884 27.5792 71.7947C27.5421 71.7001 27.5521 71.5876 27.607 71.4577L27.6859 71.2773L28.3773 69.6871C28.7487 69.8427 29.0115 69.9979 29.1663 70.1526ZM34.4286 72.5257L35.5375 70.8562L36.0144 72.7912L34.4286 72.5257ZM36.2703 73.8291C36.3143 74.0165 36.3366 74.1229 36.3379 74.1473C36.3453 74.2 36.3448 74.2502 36.3366 74.299C36.3326 74.3346 36.3198 74.3686 36.2994 74.398C36.279 74.4275 36.2517 74.4514 36.2197 74.4677C36.1264 74.5121 35.9765 74.5169 35.7703 74.482L35.6639 74.4642L35.64 74.6063L38.2083 75.0361L38.2323 74.8949C38.0728 74.8539 37.9551 74.7859 37.8797 74.6887C37.7803 74.5592 37.6748 74.2698 37.5623 73.8195L36.388 69.1387L36.3139 69.126L33.7076 73.051C33.4583 73.4324 33.2612 73.6791 33.1165 73.7898C32.9718 73.9006 32.8013 73.9542 32.6061 73.9516L32.5821 74.0928L34.3488 74.3892L34.3724 74.248C34.099 74.1808 33.9303 74.1194 33.8671 74.0649C33.759 73.9729 33.7176 73.8513 33.7429 73.6987C33.7621 73.5854 33.8231 73.4468 33.9255 73.2824L34.2468 72.799L36.0924 73.1081L36.2703 73.8291ZM45.6031 72.8892L45.5238 74.8033L40.7623 75.1259L40.7523 74.9829L40.9302 74.9703C41.0853 74.9602 41.2083 74.9236 41.3002 74.8613C41.3707 74.8124 41.4219 74.7404 41.445 74.6577C41.4698 74.5923 41.472 74.4236 41.4541 74.1512L41.2144 70.6121C41.1952 70.3344 41.169 70.1626 41.1355 70.0942C41.1015 70.0271 41.0391 69.97 40.9472 69.9238C40.8552 69.8775 40.7344 69.8601 40.5845 69.8701L40.4066 69.8819L40.397 69.7389L43.2592 69.545L43.2684 69.6888L43.0343 69.7041C42.8778 69.7141 42.7531 69.7507 42.6616 69.8139C42.5953 69.8566 42.5456 69.9237 42.5116 70.0175C42.4868 70.0829 42.4837 70.2524 42.5025 70.5249L42.7348 73.9568C42.7536 74.2327 42.7806 74.4071 42.8172 74.4803C42.8547 74.5535 42.9201 74.6054 43.0155 74.6359C43.0827 74.6555 43.2427 74.6564 43.4968 74.6394L43.9436 74.6089C44.2287 74.5893 44.4628 74.523 44.645 74.4088C44.8281 74.2946 44.9819 74.1237 45.1057 73.8953C45.2295 73.6669 45.3389 73.3361 45.4335 72.901L45.6031 72.8892ZM52.5981 71.0349L52.9556 72.9163L48.3912 74.3125L48.3493 74.1756L48.5198 74.1237C48.6688 74.0784 48.7804 74.0148 48.8554 73.9328C48.909 73.8774 48.9413 73.8007 48.95 73.7022C48.9592 73.6333 48.9234 73.4681 48.8436 73.2066L47.8057 69.8148C47.7247 69.5493 47.6601 69.3867 47.6118 69.3287C47.5642 69.2708 47.4901 69.2298 47.3903 69.2062C47.2905 69.1827 47.168 69.1919 47.0242 69.2359L46.8537 69.2878L46.8119 69.1509L49.555 68.3113L49.5969 68.4482L49.372 68.5171C49.222 68.5628 49.1087 68.6269 49.0341 68.7084C48.9788 68.7647 48.9465 68.8423 48.9343 68.9408C48.9252 69.0105 48.9609 69.1757 49.0398 69.4364L50.0463 72.7262C50.1274 72.9899 50.1945 73.1543 50.2464 73.2175C50.2991 73.2807 50.375 73.3164 50.4744 73.3238C50.5441 73.3282 50.701 73.2925 50.9434 73.2184L51.3723 73.0871C51.6448 73.0039 51.8575 72.8853 52.0101 72.7323C52.1626 72.5797 52.2734 72.3783 52.3422 72.1277C52.4102 71.8775 52.4421 71.5301 52.4351 71.0846L52.5981 71.0349ZM59.6054 62.5935L60.7113 64.0952L60.5953 64.1794C60.2113 63.8559 59.8137 63.6846 59.4018 63.665C58.9898 63.6454 58.6211 63.7552 58.295 63.9954C58.0257 64.1917 57.8238 64.4665 57.717 64.7822C57.6042 65.0962 57.5871 65.4366 57.6677 65.7604C57.7697 66.1819 57.9668 66.5904 58.2571 66.9849C58.543 67.3732 58.8521 67.6906 59.186 67.9369C59.519 68.1827 59.8499 68.3105 60.1803 68.32C60.5099 68.3288 60.842 68.2093 61.1755 67.9643C61.4393 67.7741 61.6525 67.5221 61.7962 67.2303C61.9357 66.9435 62.0242 66.5612 62.0617 66.0825L62.3376 66.4561C62.2814 66.8911 62.1641 67.2634 61.9837 67.5729C61.8041 67.882 61.5386 68.1662 61.1851 68.426C60.7213 68.7682 60.24 68.9796 59.7427 69.0593C59.2453 69.1391 58.771 69.0772 58.319 68.8736C57.877 68.6776 57.4939 68.3694 57.2079 67.9796C56.904 67.5668 56.7236 67.0934 56.6682 66.562C56.6098 66.045 56.6945 65.5219 56.9132 65.0499C57.1238 64.5822 57.4522 64.1771 57.8661 63.8742C58.1725 63.6484 58.5448 63.4767 58.9837 63.3581C59.2374 63.2901 59.3918 63.2365 59.4454 63.1964C59.5134 63.1462 59.5544 63.0774 59.5679 62.9893C59.5814 62.9013 59.5552 62.798 59.4894 62.6776L59.6054 62.5935ZM66.7442 60.0365L68.0637 61.4244L64.9836 65.0699L64.8737 64.9771L64.9897 64.8411C65.0899 64.7221 65.1488 64.6087 65.1675 64.4997C65.1818 64.4153 65.1658 64.3285 65.1222 64.2548C65.0917 64.1916 64.9731 64.0708 64.7648 63.8956L62.0547 61.6062C61.8429 61.4266 61.7008 61.3259 61.628 61.3032C61.5565 61.2801 61.4723 61.2862 61.3751 61.3202C61.2779 61.3534 61.1812 61.4283 61.084 61.5434L60.9689 61.6794L60.859 61.5866L62.7108 59.3953L62.8206 59.4881L62.668 59.6677C62.5669 59.7867 62.5072 59.9018 62.4884 60.0116C62.4734 60.0968 62.4882 60.1846 62.5303 60.2601C62.5599 60.3237 62.6794 60.444 62.8877 60.6202L65.515 62.8398C65.7259 63.0185 65.8707 63.1201 65.9491 63.1445C66.0276 63.1689 66.1109 63.158 66.1985 63.1114C66.2599 63.0756 66.372 62.9614 66.5354 62.7674L66.8249 62.4253C67.0088 62.2073 67.1239 61.9928 67.1688 61.7814C67.2137 61.57 67.1976 61.3411 67.1204 61.0936C67.0419 60.8468 66.8802 60.5378 66.6335 60.1664L66.7442 60.0365ZM64.9239 56.5605L66.171 54.0789L66.2996 54.1434L66.2373 54.2668C66.1435 54.4525 66.0995 54.5902 66.1034 54.6796C66.1051 54.7636 66.1357 54.8445 66.1902 54.9085C66.2438 54.973 66.4073 55.0737 66.6815 55.2105L69.0432 56.3975C69.4748 56.6137 69.7764 56.7253 69.949 56.7314C70.1212 56.7375 70.2903 56.6887 70.4573 56.5876C70.6242 56.4864 70.7637 56.323 70.8771 56.098C71.0065 55.84 71.0584 55.5906 71.0327 55.3496C71.007 55.1088 70.909 54.8815 70.7515 54.6975C70.5915 54.5035 70.2542 54.2777 69.7428 54.0196L67.776 53.0319C67.5616 52.9238 67.3963 52.8684 67.2821 52.8667C67.1679 52.864 67.076 52.888 67.0062 52.9373C66.8998 53.0149 66.7983 53.1483 66.7024 53.3383L66.5747 53.2747L67.4116 51.6086L67.5402 51.6723L67.4901 51.7721C67.4229 51.9068 67.3929 52.0328 67.4024 52.1492C67.4125 52.266 67.4613 52.3723 67.5498 52.4669C67.6104 52.5358 67.7381 52.6195 67.9347 52.7171L69.7651 53.6373C70.3313 53.9216 70.721 54.1644 70.9359 54.3653C71.1495 54.5654 71.2894 54.8636 71.3557 55.2576C71.422 55.6517 71.3291 56.098 71.0789 56.5967C70.8697 57.0121 70.6521 57.306 70.4277 57.4764C70.1203 57.7105 69.8165 57.8312 69.5149 57.8399C69.2132 57.8487 68.8627 57.7514 68.4626 57.5505L66.1026 56.3644C65.8258 56.2258 65.6453 56.1552 65.5629 56.1517C65.4805 56.149 65.3994 56.1756 65.321 56.2319C65.2425 56.2881 65.1532 56.4193 65.052 56.6251L64.9239 56.5605ZM68.5794 48.4605C68.6627 48.09 68.7634 47.8306 68.8797 47.6815C68.9966 47.5316 69.1404 47.4296 69.3104 47.3742C69.4804 47.3188 69.6831 47.3188 69.9168 47.3725C70.1508 47.427 70.3331 47.5172 70.4625 47.6432C70.5929 47.77 70.6787 47.9291 70.7223 48.1209C70.765 48.3132 70.7446 48.5917 70.66 48.9561L68.5794 48.4605ZM70.8357 46.5115C70.68 46.2818 70.4756 46.1371 70.221 46.0783C69.9808 46.022 69.7367 46.0416 69.4887 46.1362C69.242 46.2308 69.0349 46.3899 68.8697 46.6149C68.7045 46.8398 68.5519 47.2526 68.4133 47.852L67.8309 50.3619L67.9704 50.3942C68.0267 50.1514 68.0881 49.9905 68.1526 49.9125C68.2172 49.8345 68.2913 49.7857 68.3741 49.7678C68.4565 49.749 68.6413 49.7739 68.929 49.8401L72.3339 50.6296C72.6207 50.6958 72.7968 50.7556 72.8626 50.8083C72.9311 50.8665 72.9787 50.9455 72.9982 51.0332C73.0239 51.1322 73.0074 51.3039 72.9507 51.5493L73.091 51.5816L73.7074 48.9204C73.8796 48.1789 73.8548 47.5769 73.6325 47.1153C73.4476 46.7391 73.1582 46.505 72.7633 46.4139C72.3897 46.3272 72.0505 46.4021 71.7493 46.638C71.5366 46.8023 71.3152 47.1214 71.0828 47.5956C71.0741 47.1031 70.9917 46.7421 70.8357 46.5115ZM71.2724 48.1667C71.3967 47.988 71.5689 47.8711 71.7859 47.8158C72.0139 47.7613 72.2515 47.7622 72.479 47.8184C72.6926 47.8685 72.8757 47.9588 73.0283 48.0891C73.1817 48.2203 73.2846 48.3812 73.3365 48.5708C73.3883 48.7617 73.391 48.9574 73.3443 49.1584C73.3129 49.2939 73.2541 49.3881 73.1682 49.4408C73.0815 49.4936 72.9699 49.5041 72.8321 49.4722L72.6399 49.4265L70.9534 49.0246C71.0401 48.6322 71.1473 48.3463 71.2724 48.1667ZM11.1118 41.2915C11.1118 41.5682 11.0019 41.8335 10.8063 42.0291C10.6107 42.2248 10.3454 42.3347 10.0687 42.3347C9.79205 42.3347 9.52673 42.2248 9.33111 42.0291C9.13548 41.8335 9.02558 41.5682 9.02558 41.2915C9.02558 41.0149 9.13548 40.7496 9.33111 40.5539C9.52673 40.3583 9.79205 40.2484 10.0687 40.2484C10.3454 40.2484 10.6107 40.3583 10.8063 40.5539C11.0019 40.7496 11.1118 41.0149 11.1118 41.2915ZM73.1822 41.2915C73.1822 41.5682 73.0723 41.8335 72.8766 42.0291C72.681 42.2248 72.4157 42.3347 72.139 42.3347C71.8624 42.3347 71.597 42.2248 71.4014 42.0291C71.2058 41.8335 71.0959 41.5682 71.0959 41.2915C71.0959 41.0149 71.2058 40.7496 71.4014 40.5539C71.597 40.3583 71.8624 40.2484 72.139 40.2484C72.4157 40.2484 72.681 40.3583 72.8766 40.5539C73.0723 40.7496 73.1822 41.0149 73.1822 41.2915Z" fill="#5484BE"/>
<path fill-rule="evenodd" clip-rule="evenodd" d="M41.0009 62.6511C41.0009 62.6511 40.2887 62.1554 40.2887 60.0169C40.2887 60.0169 40.2547 59.1041 41.0009 59.1041C41.7472 59.1041 41.7128 60.0169 41.7128 60.0169C41.7132 62.1559 41.0009 62.6511 41.0009 62.6511ZM61.1142 48.0337C61.1142 48.0337 60.4237 48.5573 58.3898 47.8969C58.3898 47.8969 57.511 47.6467 57.742 46.9374C57.9717 46.2282 58.83 46.5425 58.83 46.5425C60.8631 47.2029 61.1142 48.0337 61.1142 48.0337ZM20.8833 48.039C20.8833 48.039 21.1344 47.2081 23.1684 46.5473C23.1684 46.5473 24.0262 46.233 24.2564 46.9422C24.487 47.6514 23.6086 47.9017 23.6086 47.9017C21.5742 48.5625 20.8833 48.039 20.8833 48.039ZM52.1367 45.9684C55.6658 46.3507 57.1915 48.2552 57.1915 48.2552C58.6134 49.8846 57.9338 51.698 57.9338 51.698C57.531 53.2747 55.365 56.6656 55.365 56.6656C54.3886 58.4001 55.4365 59.6686 55.4365 59.6686L55.9574 60.3856L54.3354 61.5639L53.8136 60.8468C53.8136 60.8468 52.9318 59.458 50.9811 59.8517C50.9811 59.8517 47.0858 60.863 45.4625 60.7592C45.4625 60.7592 43.5275 60.8442 42.4163 58.989C42.4163 58.989 41.0772 56.9489 41.8043 53.4748L52.1367 45.9684ZM53.8232 59.1538C53.3193 58.5313 51.7204 58.618 51.7204 58.618C50.8996 58.6128 46.877 59.2479 46.877 59.2479C44.0998 59.632 43.4569 57.3168 43.4569 57.3168C43.4569 57.316 42.8156 55.5946 43.4115 53.1426L42.6238 53.2429C41.9076 56.9812 43.2141 58.649 43.2141 58.649C44.1626 59.9449 45.5248 59.9362 45.5248 59.9362C46.1617 60.0809 50.8272 59.2226 50.8272 59.2226C53.4801 58.6285 54.62 60.2501 54.62 60.2501C54.62 60.2501 53.4304 58.6638 54.8149 56.3252C54.8149 56.3252 57.0729 52.1535 57.1322 51.5031C57.1322 51.5031 57.5602 50.2098 56.6222 48.9073C56.6222 48.9073 55.4395 47.1502 51.662 46.6759L51.3233 47.3934C53.8398 47.5843 55.2796 48.7268 55.2796 48.7268C55.2796 48.7268 57.283 50.0533 56.0594 52.5759C56.0594 52.5759 54.212 56.2053 53.9631 56.9877C53.9636 56.9886 53.3873 58.482 53.8232 59.1538ZM48.6899 32.2879C50.1441 29.0495 52.4257 28.1868 52.4257 28.1868C54.4152 27.3385 55.9308 28.5447 55.9308 28.5447C57.3057 29.4157 59.8618 32.5228 59.8618 32.5228C61.2097 33.9875 62.7388 33.3829 62.7388 33.3829L63.5828 33.1087L64.2017 35.0149L63.3587 35.29C63.3587 35.29 61.7659 35.6997 61.5366 37.677C61.5366 37.677 61.2947 41.6935 60.6944 43.2056C60.6944 43.2056 60.1774 45.0726 58.0698 45.5556C58.0698 45.5556 55.7168 46.1994 52.6362 44.4344L48.6899 32.2879ZM61.7511 34.7582C61.0035 35.0454 60.5915 36.5925 60.5915 36.5925C60.3326 37.3714 59.694 41.3935 59.694 41.3935C59.201 44.1537 56.8009 44.0491 56.8009 44.0491C56.8 44.0491 54.9644 44.1276 52.8162 42.8028L52.6689 43.5827C56.0027 45.4192 57.9927 44.6921 57.9927 44.6921C59.5175 44.1908 59.9311 42.8922 59.9311 42.8922C60.2651 42.3312 60.8915 37.6286 60.8915 37.6286C61.1452 34.9225 63.0405 34.3388 63.0405 34.3388C63.0405 34.3388 61.1648 34.9805 59.3684 32.9404C59.3684 32.9404 56.0982 29.5041 55.4971 29.2461C55.4971 29.2461 54.4003 28.4392 52.8716 28.9292C52.8716 28.9292 50.8342 29.5107 49.2165 32.957L49.7937 33.501C50.754 31.1667 52.2849 30.1506 52.2849 30.1506C52.2849 30.1506 54.1654 28.6554 56.1858 30.5983C56.1858 30.5983 59.0667 33.477 59.7346 33.9552C59.735 33.9556 60.9773 34.9652 61.7511 34.7582ZM40.1902 53.4743C40.9173 56.9489 39.5777 58.9886 39.5777 58.9886C38.467 60.8438 36.532 60.7588 36.532 60.7588C34.9078 60.8617 31.0134 59.8504 31.0134 59.8504C29.0623 59.458 28.18 60.8464 28.18 60.8464L27.6591 61.5635L26.0375 60.3861L26.5576 59.6677C26.5576 59.6677 27.6055 58.4001 26.629 56.6656C26.629 56.6656 24.4635 53.2738 24.0602 51.698C24.0602 51.698 23.3811 49.8837 24.8022 48.2534C24.8022 48.2534 26.3278 46.3507 29.8574 45.9675L40.1902 53.4743ZM28.1717 59.1529C28.6081 58.4812 28.0314 56.9869 28.0314 56.9869C27.7829 56.2044 25.9351 52.575 25.9351 52.575C24.7119 50.0524 26.7149 48.726 26.7149 48.726C26.7154 48.726 28.1543 47.5843 30.6712 47.3925L30.3325 46.6755C26.5549 47.1488 25.3723 48.9069 25.3723 48.9069C24.4338 50.2085 24.8623 51.5018 24.8623 51.5018C24.9216 52.1522 27.1792 56.3247 27.1792 56.3247C28.5645 58.6634 27.3749 60.2488 27.3749 60.2488C27.3749 60.2488 28.5148 58.6268 31.1673 59.2222C31.1673 59.2222 35.8333 60.0796 36.4701 59.9358C36.4701 59.9358 37.8319 59.9436 38.7804 58.6486C38.7804 58.6486 40.0873 56.9808 39.3702 53.2424L38.5834 53.1413C39.1793 55.5941 38.5381 57.3155 38.5376 57.3164C38.5376 57.3164 37.8951 59.6315 35.1184 59.2475C35.1184 59.2475 31.0954 58.6115 30.2745 58.6176C30.2745 58.6172 28.6752 58.5304 28.1717 59.1529ZM29.3609 44.4318C26.2808 46.1968 23.9273 45.5539 23.9273 45.5539C21.8192 45.0704 21.3027 43.2039 21.3027 43.2039C20.7024 41.6908 20.4609 37.6748 20.4609 37.6748C20.2312 35.6975 18.6384 35.2878 18.6384 35.2878L17.7949 35.014L18.4143 33.1078L19.2578 33.3807C19.2578 33.3807 20.7874 33.9853 22.1353 32.5206C22.1353 32.5206 24.6914 29.4135 26.0663 28.543C26.0663 28.543 27.5815 27.3364 29.571 28.1846C29.571 28.1846 31.8534 29.0473 33.3076 32.2857L29.3609 44.4318ZM20.2465 34.756C21.0198 34.963 22.2621 33.953 22.2621 33.953C22.9299 33.4748 25.8108 30.5961 25.8108 30.5961C27.8317 28.6532 29.7122 30.1489 29.7122 30.1489C29.7127 30.1489 31.2436 31.165 32.203 33.4988L32.7806 32.9548C31.1629 29.5089 29.1255 28.9274 29.1255 28.9274C27.5972 28.437 26.5 29.2443 26.5 29.2443C25.8998 29.5015 22.6291 32.9382 22.6291 32.9382C20.8332 34.9783 18.9571 34.3371 18.9571 34.3371C18.9571 34.3371 20.8515 34.9203 21.1056 37.626C21.1056 37.626 21.7316 42.3281 22.066 42.89C22.066 42.89 22.4792 44.1877 24.004 44.6899C24.004 44.6899 25.9944 45.417 29.3286 43.5796L29.1813 42.7998C27.0323 44.1245 25.1971 44.0461 25.1971 44.0461C25.1971 44.0461 22.7965 44.1507 22.3035 41.3914C22.3035 41.3914 21.6654 37.3684 21.406 36.5898C21.4051 36.5907 20.9941 35.0432 20.2465 34.756ZM34.6136 31.338C31.9829 28.954 31.8678 26.5169 31.8678 26.5169C31.676 24.363 33.2915 23.2946 33.2915 23.2946C34.5447 22.2559 38.29 20.7851 38.29 20.7851C40.0991 19.9564 39.9966 18.3144 39.9966 18.3144V17.4282L42.0009 17.4277L42.0027 18.3148C42.0027 18.3148 41.8998 19.9564 43.7088 20.7851C43.7088 20.7851 47.4541 22.2563 48.7074 23.2946C48.7074 23.2946 50.3233 24.363 50.1311 26.5169C50.1311 26.5169 50.016 28.954 47.3853 31.338H34.6136ZM40.9992 19.6796C41.0415 20.4795 42.3858 21.3487 42.3858 21.3487C43.0467 21.8361 46.6752 23.6861 46.6752 23.6861C49.1476 25.0077 48.3063 27.2583 48.3063 27.2583C48.3063 27.2588 47.8133 29.0286 45.8892 30.6624L46.5858 31.0438C49.363 28.4401 49.2863 26.3229 49.2863 26.3229C49.2802 24.7179 48.1734 23.9236 48.1734 23.9236C47.7436 23.4324 43.4643 21.3836 43.4643 21.3836C40.9687 20.3056 40.9992 18.3235 40.9992 18.3235C40.9992 18.3235 41.0297 20.3056 38.5346 21.3836C38.5346 21.3836 34.2557 23.4319 33.825 23.9232C33.825 23.9232 32.7187 24.7179 32.7126 26.3224C32.7126 26.3224 32.6359 28.4397 35.4135 31.0433L36.1092 30.6624C34.1855 29.0281 33.6929 27.2583 33.6925 27.2575C33.6925 27.2575 32.8516 25.0069 35.3237 23.6856C35.3237 23.6856 38.9517 21.8352 39.6126 21.3483C39.613 21.3487 40.9578 20.4795 40.9992 19.6796Z" fill="white"/>
<path fill-rule="evenodd" clip-rule="evenodd" d="M51.5688 51.6041C51.5687 51.6316 51.5633 51.6588 51.5528 51.6841C51.5422 51.7095 51.5268 51.7326 51.5073 51.752C51.4879 51.7714 51.4648 51.7868 51.4394 51.7973C51.414 51.8077 51.3868 51.8131 51.3593 51.8131C51.3318 51.8131 51.3046 51.8076 51.2793 51.7971C51.2539 51.7865 51.2308 51.7711 51.2114 51.7517C51.192 51.7322 51.1766 51.7091 51.1661 51.6837C51.1557 51.6583 51.1503 51.6311 51.1503 51.6036C51.1504 51.5482 51.1725 51.495 51.2117 51.4558C51.251 51.4166 51.3043 51.3946 51.3598 51.3946C51.4153 51.3947 51.4684 51.4168 51.5076 51.4561C51.5468 51.4953 51.5688 51.5486 51.5688 51.6041ZM50.0039 51.6041C50.0038 51.6316 49.9984 51.6588 49.9879 51.6841C49.9773 51.7095 49.9619 51.7326 49.9424 51.752C49.923 51.7714 49.8999 51.7868 49.8745 51.7973C49.8491 51.8077 49.8219 51.8131 49.7944 51.8131C49.7669 51.8131 49.7397 51.8076 49.7144 51.7971C49.689 51.7865 49.6659 51.7711 49.6465 51.7517C49.6271 51.7322 49.6117 51.7091 49.6012 51.6837C49.5907 51.6583 49.5854 51.6311 49.5854 51.6036C49.5855 51.5482 49.6075 51.495 49.6468 51.4558C49.6861 51.4166 49.7394 51.3946 49.7948 51.3946C49.8503 51.3947 49.9035 51.4168 49.9427 51.4561C49.9819 51.4953 50.0039 51.5486 50.0039 51.6041ZM50.7863 50.8735C50.7864 50.9288 50.7645 50.9819 50.7254 51.0211C50.6863 51.0602 50.6333 51.0822 50.578 51.0823C50.5506 51.0823 50.5234 51.077 50.4981 51.0665C50.4728 51.056 50.4498 51.0407 50.4304 51.0214C50.3912 50.9823 50.3692 50.9293 50.3692 50.8739C50.3691 50.8186 50.391 50.7655 50.4301 50.7264C50.4692 50.6872 50.5222 50.6652 50.5775 50.6651C50.6328 50.6651 50.6859 50.687 50.7251 50.7261C50.7642 50.7651 50.7863 50.8182 50.7863 50.8735ZM50.3426 56.0116C49.6904 56.2456 49.7166 56.0634 49.7166 56.0634C50.3168 55.8027 50.6037 53.1167 50.6037 53.1167C50.6037 53.1167 50.8905 55.8027 51.4899 56.0634C51.4899 56.0634 51.5165 56.2456 50.8639 56.0116L50.6085 56.6109L50.3426 56.0116ZM32.5828 51.6041C32.5828 51.6316 32.5773 51.6588 32.5668 51.6841C32.5562 51.7095 32.5408 51.7326 32.5213 51.752C32.5019 51.7714 32.4788 51.7868 32.4534 51.7973C32.428 51.8077 32.4008 51.8131 32.3733 51.8131C32.3458 51.8131 32.3186 51.8076 32.2933 51.7971C32.2679 51.7865 32.2448 51.7711 32.2254 51.7517C32.206 51.7322 32.1906 51.7091 32.1802 51.6837C32.1697 51.6583 32.1643 51.6311 32.1643 51.6036C32.1644 51.5482 32.1865 51.495 32.2257 51.4558C32.265 51.4166 32.3183 51.3946 32.3738 51.3946C32.4293 51.3947 32.4825 51.4168 32.5217 51.4561C32.5608 51.4953 32.5828 51.5486 32.5828 51.6041ZM31.0179 51.6041C31.0178 51.6316 31.0124 51.6588 31.0019 51.6841C30.9913 51.7095 30.9759 51.7326 30.9564 51.752C30.937 51.7714 30.9139 51.7868 30.8885 51.7973C30.8631 51.8077 30.8359 51.8131 30.8084 51.8131C30.7809 51.8131 30.7537 51.8076 30.7284 51.7971C30.703 51.7865 30.6799 51.7711 30.6605 51.7517C30.6411 51.7322 30.6257 51.7091 30.6152 51.6837C30.6048 51.6583 30.5994 51.6311 30.5994 51.6036C30.5995 51.5482 30.6216 51.495 30.6608 51.4558C30.7001 51.4166 30.7534 51.3946 30.8089 51.3946C30.8643 51.3947 30.9175 51.4168 30.9567 51.4561C30.9959 51.4953 31.0179 51.5486 31.0179 51.6041ZM31.8003 50.8735C31.8004 50.9288 31.7785 50.9819 31.7394 51.0211C31.7003 51.0602 31.6473 51.0822 31.592 51.0823C31.5646 51.0823 31.5374 51.077 31.5121 51.0665C31.4868 51.056 31.4638 51.0407 31.4444 51.0214C31.4053 50.9823 31.3832 50.9293 31.3832 50.8739C31.3831 50.8186 31.405 50.7655 31.4441 50.7264C31.4832 50.6872 31.5362 50.6652 31.5915 50.6651C31.6468 50.6651 31.6999 50.687 31.7391 50.7261C31.7782 50.7651 31.8003 50.8182 31.8003 50.8735ZM31.3566 56.0116C30.7045 56.2456 30.7306 56.0634 30.7306 56.0634C31.3304 55.8027 31.6172 53.1167 31.6172 53.1167C31.6172 53.1167 31.9041 55.8027 32.5039 56.0634C32.5039 56.0634 32.53 56.2456 31.8779 56.0116L31.622 56.6109L31.3566 56.0116ZM58.2451 34.4955C58.247 34.5241 58.243 34.5527 58.2333 34.5797C58.2237 34.6066 58.2086 34.6313 58.189 34.6521C58.1694 34.673 58.1458 34.6897 58.1195 34.701C58.0933 34.7124 58.065 34.7183 58.0364 34.7183C58.0077 34.7183 57.9794 34.7124 57.9532 34.701C57.9269 34.6897 57.9033 34.673 57.8837 34.6521C57.8641 34.6313 57.849 34.6066 57.8394 34.5797C57.8297 34.5527 57.8257 34.5241 57.8275 34.4955C57.831 34.4425 57.8545 34.3927 57.8933 34.3564C57.932 34.32 57.9832 34.2998 58.0364 34.2998C58.0895 34.2998 58.1407 34.32 58.1795 34.3564C58.2182 34.3927 58.2417 34.4425 58.2451 34.4955ZM56.6807 34.4955C56.6825 34.5241 56.6785 34.5527 56.6688 34.5797C56.6592 34.6066 56.6441 34.6313 56.6245 34.6521C56.605 34.673 56.5813 34.6897 56.5551 34.701C56.5288 34.7124 56.5005 34.7183 56.4719 34.7183C56.4433 34.7183 56.4149 34.7124 56.3887 34.701C56.3624 34.6897 56.3388 34.673 56.3192 34.6521C56.2997 34.6313 56.2846 34.6066 56.2749 34.5797C56.2653 34.5527 56.2612 34.5241 56.2631 34.4955C56.2665 34.4425 56.29 34.3927 56.3288 34.3564C56.3676 34.32 56.4187 34.2998 56.4719 34.2998C56.525 34.2998 56.5762 34.32 56.615 34.3564C56.6538 34.3927 56.6772 34.4425 56.6807 34.4955ZM57.4627 33.765C57.4645 33.7935 57.4605 33.8221 57.4509 33.8491C57.4412 33.876 57.4261 33.9007 57.4065 33.9216C57.387 33.9424 57.3633 33.9591 57.3371 33.9705C57.3108 33.9818 57.2825 33.9877 57.2539 33.9877C57.2253 33.9877 57.197 33.9818 57.1707 33.9705C57.1445 33.9591 57.1208 33.9424 57.1012 33.9216C57.0817 33.9007 57.0666 33.876 57.0569 33.8491C57.0473 33.8221 57.0433 33.7935 57.0451 33.765C57.0485 33.7119 57.072 33.6622 57.1108 33.6258C57.1496 33.5895 57.2007 33.5692 57.2539 33.5692C57.3071 33.5692 57.3582 33.5895 57.397 33.6258C57.4358 33.6622 57.4593 33.7119 57.4627 33.765ZM57.0194 38.9026C56.3673 39.1375 56.3934 38.9549 56.3934 38.9549C56.9937 38.6938 57.2805 36.0077 57.2805 36.0077C57.2805 36.0077 57.5673 38.6938 58.1667 38.9549C58.1667 38.9549 58.1933 39.1375 57.5407 38.9026L57.2853 39.5024L57.0194 38.9026ZM25.4888 34.4955C25.4889 34.5508 25.4671 34.6039 25.4281 34.643C25.3891 34.6822 25.3361 34.7042 25.2809 34.7043C25.2256 34.7045 25.1726 34.6826 25.1334 34.6436C25.0943 34.6046 25.0722 34.5517 25.0721 34.4964C25.072 34.4691 25.0774 34.4419 25.0878 34.4166C25.0982 34.3913 25.1135 34.3683 25.1328 34.349C25.1521 34.3296 25.175 34.3142 25.2003 34.3036C25.2256 34.2931 25.2526 34.2877 25.28 34.2876C25.3074 34.2876 25.3345 34.2929 25.3598 34.3033C25.3851 34.3137 25.4081 34.329 25.4275 34.3483C25.4469 34.3676 25.4623 34.3906 25.4728 34.4158C25.4833 34.4411 25.4887 34.4682 25.4888 34.4955ZM23.9239 34.4955C23.9257 34.5241 23.9217 34.5527 23.9121 34.5797C23.9024 34.6066 23.8873 34.6313 23.8677 34.6521C23.8482 34.673 23.8245 34.6897 23.7983 34.701C23.772 34.7124 23.7437 34.7183 23.7151 34.7183C23.6865 34.7183 23.6582 34.7124 23.6319 34.701C23.6057 34.6897 23.582 34.673 23.5624 34.6521C23.5429 34.6313 23.5278 34.6066 23.5181 34.5797C23.5085 34.5527 23.5044 34.5241 23.5063 34.4955C23.5097 34.4425 23.5332 34.3927 23.572 34.3564C23.6108 34.32 23.6619 34.2998 23.7151 34.2998C23.7683 34.2998 23.8194 34.32 23.8582 34.3564C23.897 34.3927 23.9205 34.4425 23.9239 34.4955ZM24.7064 33.765C24.7082 33.7935 24.7042 33.8221 24.6945 33.8491C24.6849 33.876 24.6698 33.9007 24.6502 33.9216C24.6306 33.9424 24.607 33.9591 24.5807 33.9705C24.5545 33.9818 24.5262 33.9877 24.4976 33.9877C24.4689 33.9877 24.4406 33.9818 24.4144 33.9705C24.3881 33.9591 24.3645 33.9424 24.3449 33.9216C24.3253 33.9007 24.3103 33.876 24.3006 33.8491C24.2909 33.8221 24.2869 33.7935 24.2888 33.765C24.2922 33.7119 24.3157 33.6622 24.3545 33.6258C24.3932 33.5895 24.4444 33.5692 24.4976 33.5692C24.5507 33.5692 24.6019 33.5895 24.6407 33.6258C24.6794 33.6622 24.7029 33.7119 24.7064 33.765ZM24.263 38.9026C23.6109 39.1375 23.6371 38.9549 23.6371 38.9549C24.2369 38.6938 24.5241 36.0077 24.5241 36.0077C24.5241 36.0077 24.8105 38.6938 25.4108 38.9549C25.4108 38.9549 25.4369 39.1375 24.7848 38.9026L24.5289 39.5024L24.263 38.9026ZM41.9709 23.2286C41.9728 23.2572 41.9688 23.2858 41.9591 23.3127C41.9494 23.3397 41.9344 23.3643 41.9148 23.3852C41.8952 23.4061 41.8716 23.4227 41.8453 23.4341C41.8191 23.4455 41.7908 23.4514 41.7621 23.4514C41.7335 23.4514 41.7052 23.4455 41.679 23.4341C41.6527 23.4227 41.6291 23.4061 41.6095 23.3852C41.5899 23.3643 41.5748 23.3397 41.5652 23.3127C41.5555 23.2858 41.5515 23.2572 41.5533 23.2286C41.5568 23.1756 41.5803 23.1258 41.619 23.0895C41.6578 23.0531 41.709 23.0329 41.7621 23.0329C41.8153 23.0329 41.8665 23.0531 41.9052 23.0895C41.944 23.1258 41.9675 23.1756 41.9709 23.2286ZM40.4065 23.2286C40.4083 23.2572 40.4043 23.2858 40.3946 23.3127C40.385 23.3397 40.3699 23.3643 40.3503 23.3852C40.3307 23.4061 40.3071 23.4227 40.2808 23.4341C40.2546 23.4455 40.2263 23.4514 40.1977 23.4514C40.1691 23.4514 40.1407 23.4455 40.1145 23.4341C40.0882 23.4227 40.0646 23.4061 40.045 23.3852C40.0254 23.3643 40.0104 23.3397 40.0007 23.3127C39.9911 23.2858 39.987 23.2572 39.9889 23.2286C39.9923 23.1756 40.0158 23.1258 40.0546 23.0895C40.0933 23.0531 40.1445 23.0329 40.1977 23.0329C40.2508 23.0329 40.302 23.0531 40.3408 23.0895C40.3795 23.1258 40.403 23.1756 40.4065 23.2286ZM41.1889 22.4985C41.1908 22.527 41.1867 22.5557 41.1771 22.5826C41.1674 22.6095 41.1523 22.6342 41.1328 22.6551C41.1132 22.6759 41.0896 22.6926 41.0633 22.704C41.037 22.7153 41.0087 22.7212 40.9801 22.7212C40.9515 22.7212 40.9232 22.7153 40.8969 22.704C40.8707 22.6926 40.847 22.6759 40.8275 22.6551C40.8079 22.6342 40.7928 22.6095 40.7832 22.5826C40.7735 22.5557 40.7695 22.527 40.7713 22.4985C40.7748 22.4454 40.7982 22.3957 40.837 22.3593C40.8758 22.323 40.927 22.3027 40.9801 22.3027C41.0333 22.3027 41.0844 22.323 41.1232 22.3593C41.162 22.3957 41.1855 22.4454 41.1889 22.4985ZM40.7456 26.8018C40.0935 27.0367 40.1196 26.8541 40.1196 26.8541C40.7194 26.593 41.0067 24.7412 41.0067 24.7412C41.0067 24.7412 41.2935 26.593 41.8938 26.8541C41.8938 26.8541 41.9195 27.0367 41.2674 26.8018L41.0115 26.984L40.7456 26.8018Z" fill="#5484BE"/>
<path fill-rule="evenodd" clip-rule="evenodd" d="M26.5955 22.5583C26.8352 22.2897 27.22 22.205 27.5503 22.3482C29.8103 23.3283 31.7226 24.6891 33.0633 25.7951C33.7357 26.3498 34.2696 26.8448 34.6371 27.203C34.821 27.3822 34.9636 27.5275 35.0613 27.6293C35.0792 27.6479 35.0955 27.665 35.1104 27.6806C35.1251 27.6789 35.1416 27.6764 35.1599 27.6729C35.2222 27.661 35.2844 27.6417 35.3336 27.6237C35.357 27.6151 35.3747 27.6078 35.3847 27.6035C35.3887 27.6018 35.3914 27.6006 35.3925 27.6001C35.4061 27.5937 35.4199 27.5877 35.4339 27.582C35.8104 27.4297 36.3718 27.3354 36.9075 27.2683C37.4734 27.1974 38.1161 27.1456 38.7148 27.1078C39.3154 27.0699 39.8814 27.0456 40.2965 27.0308C40.5043 27.0234 40.6749 27.0183 40.7939 27.0151C40.8534 27.0134 40.9 27.0123 40.932 27.0115C40.948 27.0112 40.9603 27.0109 40.9687 27.0107L40.976 27.0105C40.9837 27.0103 40.9913 27.0102 40.999 27.0102C41.0067 27.0102 41.0144 27.0103 41.0221 27.0106L41.0294 27.0107C41.0378 27.0109 41.0501 27.0112 41.0661 27.0115C41.0981 27.0123 41.1447 27.0134 41.2042 27.0151C41.3232 27.0183 41.4938 27.0234 41.7016 27.0308C42.1168 27.0456 42.6827 27.0699 43.2832 27.1078C43.8819 27.1456 44.5245 27.1974 45.0901 27.2683C45.6255 27.3354 46.1867 27.4297 46.5631 27.5822C46.5768 27.5878 46.5903 27.5937 46.6037 27.6C46.6048 27.6005 46.6075 27.6017 46.6115 27.6034C46.6216 27.6077 46.6393 27.615 46.6628 27.6236C46.7119 27.6417 46.7743 27.661 46.8366 27.6729C46.8548 27.6764 46.8713 27.6789 46.886 27.6806C46.9009 27.665 46.9172 27.6479 46.9351 27.6293C47.0328 27.5275 47.1754 27.3823 47.3593 27.2031C47.7268 26.8449 48.2607 26.3499 48.9331 25.7952C50.2737 24.6893 52.186 23.3285 54.446 22.3483C54.7762 22.205 55.1611 22.2896 55.4007 22.5582L54.7781 23.1139C55.4007 22.5582 55.4009 22.5583 55.401 22.5584L55.4019 22.5595L55.4036 22.5614C55.4049 22.5629 55.4066 22.5648 55.4087 22.5671C55.4128 22.5718 55.4183 22.578 55.4251 22.5859C55.4387 22.6016 55.4576 22.6236 55.4811 22.6514C55.528 22.707 55.5932 22.7861 55.6707 22.8848C55.8251 23.0812 56.0316 23.3596 56.2395 23.6874C56.6305 24.3041 57.1257 25.2468 57.1257 26.1914C57.1257 26.2153 57.1247 26.2392 57.1226 26.263L56.2912 26.1914C57.1226 26.263 57.1226 26.2631 57.1226 26.2632L57.1226 26.2633L57.1226 26.2638L57.122 26.2698C57.1217 26.2738 57.1212 26.2795 57.1205 26.2868C57.1192 26.3015 57.1173 26.3225 57.1147 26.3493C57.1097 26.4028 57.1023 26.4792 57.0925 26.5724C57.0731 26.7584 57.0443 27.0136 57.0068 27.2887C56.9696 27.5622 56.9226 27.8642 56.8661 28.141C56.8178 28.3775 56.7524 28.6493 56.6599 28.8738C56.6534 28.8983 56.6432 28.9389 56.6312 28.9953C56.6056 29.1163 56.572 29.3103 56.5491 29.5741C56.549 29.5746 56.549 29.5752 56.5489 29.5758L56.5489 29.5769C56.5485 29.5808 56.5481 29.5857 56.5476 29.5916C56.5469 29.5985 56.5462 29.6066 56.5452 29.616C56.5445 29.6228 56.5438 29.6302 56.5429 29.6382C56.5388 29.6765 56.5325 29.7292 56.5233 29.794C56.505 29.9231 56.4747 30.1022 56.4259 30.3121C56.3317 30.7175 56.1617 31.2678 55.8547 31.7995C55.8496 31.8108 55.8417 31.8286 55.8319 31.8525C55.8078 31.9109 55.7723 32.0051 55.7358 32.1303C55.6638 32.3769 55.5893 32.7386 55.5866 33.1824C55.5866 33.1829 55.5866 33.1834 55.5867 33.1839C55.5878 33.2043 55.5893 33.2325 55.5908 33.2678C55.5937 33.3384 55.5965 33.4374 55.5968 33.5581C55.5973 33.7981 55.5875 34.1307 55.5455 34.4985C55.4681 35.176 55.2595 36.1961 54.5931 36.8681C54.5882 36.8748 54.5786 36.8889 54.5673 36.9108C54.5391 36.9649 54.4919 37.0814 54.4919 37.2757C54.4919 37.3036 54.4905 37.3314 54.4878 37.3592C54.4889 37.3633 54.4913 37.3699 54.4964 37.3785C54.5022 37.3883 54.5171 37.4103 54.5531 37.44C54.5613 37.4467 54.5693 37.4536 54.5773 37.4607L54.5813 37.4643C54.5842 37.4668 54.5886 37.4707 54.5944 37.4759C54.6061 37.4862 54.6235 37.5016 54.6459 37.5213C54.6908 37.5608 54.7558 37.6179 54.8356 37.6873C54.9955 37.8264 55.2136 38.0143 55.4479 38.2103C55.6831 38.4071 55.9297 38.6082 56.1475 38.7752C56.3804 38.954 56.5342 39.0575 56.5999 39.0919C56.9229 39.2609 57.0989 39.6199 57.0346 39.9787L56.2131 39.8314C57.0346 39.9787 57.0345 39.979 57.0345 39.9793L57.0344 39.9799L57.0341 39.9811L57.0336 39.9838C57.0333 39.9857 57.0329 39.9876 57.0325 39.9898C57.0317 39.994 57.0308 39.9988 57.0297 40.0041C57.0275 40.0148 57.0248 40.0276 57.0214 40.0423C57.0146 40.0718 57.0051 40.1093 56.9923 40.1535C56.9668 40.2416 56.9272 40.3583 56.8676 40.4915C56.7516 40.751 56.5534 41.0868 56.2225 41.3942C56.2217 41.395 56.2209 41.3958 56.22 41.3968C56.2088 41.4087 56.1908 41.4284 56.1681 41.4545C56.122 41.5076 56.0613 41.5826 56.0019 41.6692C55.9415 41.7574 55.8915 41.8448 55.8586 41.9231C55.8426 41.9612 55.8329 41.9919 55.8274 42.0149C55.8225 42.0359 55.822 42.0466 55.8219 42.0482C55.8219 42.0496 55.8219 42.0522 55.822 42.0558C55.8221 42.0636 55.8223 42.0761 55.8228 42.0921C55.8237 42.1246 55.8256 42.1687 55.8292 42.2156C55.833 42.264 55.8378 42.306 55.8431 42.3371C55.8441 42.3425 55.8449 42.3469 55.8456 42.3504C55.9216 42.5496 55.9186 42.7709 55.8363 42.9685C55.7502 43.1754 55.5845 43.3389 55.3766 43.4223C55.376 43.4226 55.375 43.423 55.3736 43.4236C55.3683 43.4259 55.3572 43.4307 55.3412 43.4381C55.309 43.453 55.2572 43.4782 55.191 43.5145C55.058 43.5877 54.8719 43.7032 54.6729 43.8666C54.2813 44.1883 53.8622 44.6756 53.6663 45.3782C53.663 45.3984 53.6587 45.423 53.6534 45.4516C53.6392 45.5276 53.6175 45.6326 53.5856 45.7606C53.522 46.0159 53.4169 46.3667 53.2483 46.763C52.9131 47.551 52.3113 48.5544 51.2518 49.3221C51.2462 49.3262 51.2405 49.3302 51.2347 49.3342C51.2347 49.3342 51.2347 49.3342 51.2347 49.3342L51.2346 49.3343L51.2338 49.3348L51.2297 49.3376C51.226 49.3402 51.2203 49.3441 51.2127 49.3494C51.1973 49.36 51.1742 49.3761 51.1439 49.3973C51.0833 49.4397 50.9941 49.5024 50.8814 49.5829C50.6557 49.7439 50.3362 49.9754 49.9629 50.2559C49.2652 50.7801 48.3895 51.4679 47.5892 52.1821C47.5408 52.3252 47.4667 52.5068 47.3546 52.7116C47.1523 53.0811 46.8305 53.5187 46.326 53.9385C46.3247 53.9654 46.3231 53.9932 46.3212 54.022C46.3009 54.3371 46.2471 54.7718 46.11 55.2431C45.8376 56.1793 45.2031 57.3496 43.7746 57.8965C43.3894 58.0635 43.0164 58.2576 42.6585 58.4771C42.6508 58.4822 42.6416 58.4882 42.6308 58.495C42.605 58.5115 42.5703 58.5329 42.5276 58.5576C42.4429 58.6067 42.3241 58.6704 42.1797 58.7339C41.9007 58.8566 41.4782 59.0003 40.9977 59.0003C40.5174 59.0003 40.095 58.8566 39.8162 58.7338C39.6719 58.6702 39.5531 58.6066 39.4684 58.5574C39.4258 58.5327 39.3911 58.5113 39.3653 58.4949C39.3535 58.4874 39.3435 58.4809 39.3354 58.4755C39.0588 58.3036 38.7782 58.1575 38.5628 58.0529C38.4547 58.0004 38.3652 57.9594 38.3038 57.932C38.2731 57.9183 38.2496 57.9081 38.2344 57.9016C38.231 57.9001 38.228 57.8988 38.2254 57.8977C36.7945 57.3514 36.1591 56.1801 35.8865 55.2432C35.7493 54.7718 35.6954 54.3371 35.6751 54.022C35.6733 53.9933 35.6717 53.9654 35.6704 53.9385C35.1659 53.5187 34.8441 53.0811 34.6418 52.7116C34.5297 52.5067 34.4556 52.3252 34.4071 52.1821C33.6068 51.4677 32.7312 50.7799 32.0334 50.2558C31.66 49.9753 31.3404 49.7439 31.1148 49.5829C31.002 49.5025 30.9128 49.4397 30.8522 49.3974C30.8219 49.3762 30.7988 49.3601 30.7834 49.3495C30.7758 49.3442 30.77 49.3403 30.7663 49.3377L30.7615 49.3344L30.7614 49.3343C30.7556 49.3303 30.7499 49.3263 30.7441 49.3221C29.6846 48.5544 29.0828 47.551 28.7476 46.763C28.579 46.3667 28.4739 46.0159 28.4103 45.7606C28.3784 45.6326 28.3567 45.5276 28.3425 45.4516C28.3372 45.423 28.3329 45.3984 28.3296 45.3782C28.1338 44.6758 27.7147 44.1884 27.3232 43.8667C27.1242 43.7032 26.9381 43.5877 26.8051 43.5145C26.739 43.4781 26.6871 43.4529 26.6549 43.438C26.6389 43.4306 26.6278 43.4258 26.6225 43.4235C26.621 43.4229 26.6199 43.4224 26.6194 43.4222C26.4116 43.3387 26.2461 43.1752 26.16 42.9684C26.0778 42.7708 26.0748 42.5496 26.1508 42.3504C26.1515 42.3469 26.1523 42.3425 26.1532 42.3371C26.1585 42.306 26.1634 42.264 26.1671 42.2156C26.1707 42.1687 26.1726 42.1246 26.1736 42.0921C26.1741 42.0761 26.1743 42.0636 26.1744 42.0558C26.1744 42.0522 26.1744 42.0496 26.1745 42.0482C26.1744 42.0467 26.1739 42.036 26.1689 42.0149C26.1635 41.9919 26.1538 41.9612 26.1377 41.9231C26.1048 41.8448 26.0549 41.7574 25.9944 41.6692C25.9351 41.5826 25.8743 41.5076 25.8283 41.4545C25.8056 41.4284 25.7875 41.4087 25.7763 41.3968C25.7754 41.3958 25.7746 41.3949 25.7738 41.3941C25.4431 41.0868 25.245 40.751 25.129 40.4917C25.0694 40.3585 25.0298 40.242 25.0042 40.154C24.9914 40.1098 24.9819 40.0723 24.9751 40.0429C24.9717 40.0281 24.969 40.0154 24.9668 40.0047C24.9661 40.0014 24.9655 39.9984 24.965 39.9955C24.9646 39.9937 24.9643 39.992 24.964 39.9904C24.9636 39.9883 24.9632 39.9863 24.9628 39.9844L24.9623 39.9818L24.9621 39.9805L24.962 39.9799C24.962 39.9796 24.9619 39.9793 25.7832 39.8314L24.9619 39.9793C24.8973 39.6205 25.073 39.2613 25.396 39.0922C25.4617 39.0577 25.6156 38.954 25.8486 38.7752C26.0665 38.6081 26.3132 38.407 26.5485 38.2102C26.7829 38.0141 27.0012 37.8262 27.1612 37.6871C27.2411 37.6177 27.3062 37.5606 27.3511 37.5211C27.3735 37.5014 27.3909 37.486 27.4026 37.4757C27.4084 37.4705 27.4128 37.4666 27.4157 37.464L27.4198 37.4604C27.4198 37.4605 27.4198 37.4604 27.4198 37.4604C27.4275 37.4536 27.4354 37.4468 27.4434 37.4402C27.4793 37.4106 27.4943 37.3885 27.5001 37.3786C27.5054 37.3697 27.5078 37.3629 27.509 37.3587C27.5062 37.3311 27.5049 37.3034 27.5049 37.2757C27.5049 37.0819 27.4577 36.9655 27.4295 36.9112C27.418 36.8892 27.4083 36.8749 27.4034 36.8682C26.737 36.1962 26.5282 35.1761 26.4507 34.4985C26.4086 34.1307 26.3988 33.7982 26.3992 33.5582C26.3995 33.4375 26.4023 33.3385 26.4052 33.268C26.4066 33.2327 26.4081 33.2044 26.4093 33.184C26.4093 33.1835 26.4093 33.183 26.4093 33.1825C26.4066 32.7385 26.3322 32.3767 26.2603 32.1301C26.2238 32.0048 26.1884 31.9106 26.1643 31.8521C26.1545 31.8283 26.1467 31.8106 26.1415 31.7992C25.8345 31.2676 25.6647 30.7173 25.5706 30.3119C25.5219 30.1019 25.4916 29.9228 25.4733 29.7937C25.4642 29.7289 25.4579 29.6762 25.4538 29.6379C25.4518 29.6187 25.4503 29.6031 25.4492 29.5913C25.4487 29.5854 25.4482 29.5805 25.4479 29.5765L25.4477 29.5742C25.4246 29.3107 25.3908 29.117 25.3651 28.9961C25.3531 28.9395 25.3428 28.8988 25.3362 28.8743C25.2437 28.6495 25.1782 28.3774 25.1299 28.1406C25.0735 27.8637 25.0266 27.5617 24.9895 27.2882C24.9522 27.0131 24.9235 26.7579 24.9041 26.572C24.8944 26.4788 24.887 26.4024 24.882 26.3489C24.8795 26.3221 24.8775 26.3011 24.8762 26.2865C24.8758 26.2819 24.8755 26.278 24.8752 26.2748C24.875 26.2728 24.8749 26.271 24.8747 26.2695L24.8742 26.2628C24.8741 26.2627 24.8741 26.2627 25.7056 26.1914L24.8741 26.2627C24.8721 26.239 24.8711 26.2152 24.8711 26.1914C24.8711 25.2469 25.3662 24.3042 25.7571 23.6875C25.9648 23.3597 26.1713 23.0813 26.3256 22.8848C26.4031 22.7862 26.4684 22.7071 26.5152 22.6515C26.5387 22.6237 26.5576 22.6017 26.5712 22.586C26.578 22.5781 26.5835 22.5719 26.5876 22.5672C26.5897 22.5649 26.5913 22.563 26.5927 22.5615L26.5944 22.5596L26.5953 22.5585C26.5954 22.5584 26.5955 22.5583 27.2182 23.1139L26.5955 22.5583ZM27.4656 24.1435C27.3719 24.2717 27.2691 24.4197 27.1668 24.5811C26.8103 25.1436 26.5529 25.7247 26.5406 26.1593C26.5415 26.1689 26.5426 26.1802 26.5438 26.193C26.5483 26.2416 26.5552 26.3123 26.5642 26.3992C26.5824 26.5735 26.6091 26.8106 26.6434 27.0637C26.678 27.3183 26.7192 27.5804 26.7654 27.8073C26.8153 28.0521 26.8592 28.1944 26.8827 28.246C26.8948 28.2726 26.9054 28.2998 26.9146 28.3275L26.1228 28.5911C26.9146 28.3275 26.9147 28.3277 26.9147 28.3278L26.9151 28.3289L26.9156 28.3304L26.9167 28.3337C26.9174 28.3361 26.9183 28.3387 26.9193 28.3417C26.9212 28.3477 26.9234 28.355 26.926 28.3635C26.9312 28.3805 26.9376 28.4024 26.9449 28.4293C26.9596 28.483 26.978 28.5564 26.9977 28.6489C27.0371 28.8342 27.0815 29.0961 27.1107 29.4314C27.1109 29.4334 27.111 29.4354 27.1112 29.4374C27.1112 29.4378 27.1113 29.4386 27.1114 29.4397C27.1117 29.4433 27.1124 29.4504 27.1135 29.4607C27.1157 29.4815 27.1196 29.5151 27.1259 29.5596C27.1386 29.6488 27.1605 29.7793 27.1965 29.9345C27.27 30.2512 27.3952 30.6389 27.5983 30.9842C27.606 30.9972 27.6132 31.0103 27.6202 31.0237L26.8791 31.4075C27.6202 31.0237 27.6203 31.0239 27.6204 31.0241L27.6212 31.0256L27.6223 31.0279C27.6231 31.0295 27.624 31.0312 27.625 31.0332C27.6261 31.0353 27.6273 31.0376 27.6285 31.0402C27.6296 31.0423 27.6307 31.0446 27.6319 31.047C27.6371 31.0576 27.6436 31.0711 27.6512 31.0873C27.6663 31.1197 27.6857 31.1632 27.7079 31.2172C27.7523 31.325 27.8081 31.4754 27.8628 31.6632C27.972 32.0381 28.0785 32.5673 28.0785 33.2073C28.0785 33.227 28.0778 33.2466 28.0764 33.2662C28.0764 33.2663 28.0764 33.2664 28.0764 33.2664L28.0764 33.2672C28.0764 33.2673 28.0763 33.2674 28.0763 33.2675L28.0763 33.2678C28.0762 33.2698 28.0759 33.2739 28.0756 33.2797C28.0749 33.2915 28.0739 33.3106 28.0729 33.3363C28.0708 33.3877 28.0685 33.4649 28.0683 33.5613C28.068 33.7557 28.0761 34.0214 28.109 34.3088C28.1807 34.9359 28.3475 35.4478 28.5864 35.6907C28.5879 35.6922 28.5895 35.6937 28.5911 35.6953C28.6006 35.7048 28.6115 35.7159 28.6234 35.7286C28.6472 35.7539 28.6753 35.7858 28.7061 35.8245C28.7677 35.9019 28.8405 36.0069 28.9102 36.1409C29.0466 36.4031 29.1653 36.7652 29.1735 37.2252C29.1765 37.2585 29.1788 37.2984 29.1792 37.3438C29.18 37.445 29.1712 37.5779 29.1364 37.7296C29.0653 38.0397 28.8894 38.4063 28.5179 38.7175L28.5085 38.7258C28.4958 38.737 28.4774 38.7533 28.4538 38.7741C28.4067 38.8155 28.3391 38.8748 28.2563 38.9467C28.0911 39.0904 27.8643 39.2855 27.6194 39.4904C27.3755 39.6945 27.1087 39.9122 26.8645 40.0996C26.8596 40.1033 26.8547 40.1071 26.8498 40.1108C26.871 40.1339 26.8939 40.1568 26.9185 40.1792C26.9282 40.188 26.9377 40.1971 26.947 40.2064L26.3569 40.7965C26.947 40.2064 26.9471 40.2065 26.9473 40.2067L26.9482 40.2076L26.9496 40.209L26.9512 40.2106L26.9532 40.2126C26.9559 40.2154 26.9592 40.2188 26.9632 40.2228C26.971 40.2309 26.9812 40.2416 26.9935 40.2546C27.0179 40.2807 27.0508 40.3167 27.0893 40.3611C27.1655 40.4489 27.2678 40.5745 27.3715 40.7259C27.5554 40.9945 27.8436 41.4846 27.8436 42.0484H27.603C27.603 42.0484 27.603 42.0485 27.603 42.0485C27.8436 42.0485 27.8436 42.0485 27.8436 42.0486L27.8436 42.05L27.8435 42.0522C27.8435 42.0538 27.8435 42.0559 27.8435 42.0583C27.8435 42.0632 27.8434 42.0697 27.8433 42.0776C27.8431 42.0933 27.8427 42.1149 27.842 42.1408C27.8416 42.1549 27.841 42.1706 27.8404 42.1875C28.0033 42.2891 28.1891 42.418 28.3828 42.5771C28.9684 43.0583 29.6494 43.8371 29.9541 44.9914C29.9626 45.0239 29.9692 45.0568 29.9738 45.09C29.9739 45.0905 29.974 45.0913 29.9742 45.0926C29.9744 45.0939 29.9747 45.0956 29.975 45.0977C29.9764 45.1067 29.9791 45.1231 29.9834 45.1461C29.992 45.1921 30.0067 45.2642 30.0299 45.357C30.0763 45.5433 30.1554 45.8084 30.2835 46.1096C30.5407 46.7144 30.9801 47.4291 31.7159 47.965C31.7203 47.9681 31.7263 47.9722 31.7337 47.9774C31.7453 47.9854 31.7605 47.9959 31.7791 48.0089C31.7881 48.0151 31.7978 48.0219 31.8083 48.0293C31.873 48.0744 31.9665 48.1403 32.084 48.224C32.3188 48.3915 32.6496 48.6312 33.0358 48.9212C33.8054 49.4994 34.8066 50.2866 35.7077 51.1074C35.8428 51.2305 35.9337 51.3944 35.9666 51.5739C35.9667 51.5743 35.9668 51.5748 35.9669 51.5754C35.9687 51.5829 35.9736 51.6023 35.983 51.6316C36.002 51.6903 36.039 51.788 36.1059 51.9102C36.2379 52.1514 36.4927 52.5004 36.9783 52.8382C37.2177 53.0047 37.3528 53.284 37.3347 53.5749C37.3347 53.5755 37.3347 53.5761 37.3346 53.5767L37.3347 53.576L37.3347 53.5752C37.3346 53.5767 37.3344 53.5806 37.3342 53.5869C37.3337 53.5994 37.3331 53.6211 37.3328 53.6508C37.3323 53.7103 37.3335 53.8012 37.3408 53.9146C37.3556 54.144 37.3947 54.4525 37.4891 54.7768C37.6784 55.4273 38.0564 56.0504 38.8304 56.3421C38.8365 56.3444 38.8426 56.3468 38.8487 56.3492C38.8514 56.3503 38.8542 56.3515 38.857 56.3526L38.5362 57.123C38.857 56.3526 38.8571 56.3526 38.8571 56.3527L38.8573 56.3527L38.8576 56.3529L38.8585 56.3532L38.861 56.3543C38.8629 56.3551 38.8654 56.3562 38.8686 56.3575C38.8748 56.3601 38.8834 56.3638 38.8941 56.3684C38.9156 56.3776 38.9459 56.3908 38.9837 56.4077C39.0593 56.4414 39.1654 56.49 39.292 56.5515C39.5433 56.6735 39.8841 56.8505 40.2299 57.0662C40.2389 57.0719 40.2479 57.0777 40.2567 57.0837C40.2576 57.0843 40.2595 57.0855 40.2623 57.0873C40.2701 57.0923 40.2848 57.1014 40.3055 57.1134C40.3474 57.1377 40.4108 57.1719 40.4888 57.2062C40.6544 57.2791 40.8369 57.3312 40.9977 57.3312C41.159 57.3312 41.3417 57.2791 41.5075 57.2061C41.5856 57.1718 41.6491 57.1376 41.6911 57.1133C41.7118 57.1013 41.7265 57.0921 41.7343 57.0872C41.7371 57.0854 41.739 57.0841 41.7399 57.0835C41.75 57.0767 41.7603 57.07 41.7707 57.0636C42.2062 56.7955 42.6605 56.5592 43.1301 56.3567C43.1421 56.3516 43.1542 56.3467 43.1663 56.3421C43.9401 56.0505 44.318 55.4274 44.5073 54.7768C44.6017 54.4526 44.6408 54.144 44.6556 53.9146C44.6629 53.8012 44.6641 53.7103 44.6636 53.6508C44.6633 53.6211 44.6627 53.5994 44.6622 53.5869C44.6619 53.5806 44.6617 53.5767 44.6616 53.5752L44.6617 53.576L44.6618 53.5775C44.6618 53.5779 44.6618 53.5782 45.4946 53.5233L44.6618 53.5782C44.6618 53.5771 44.6617 53.576 44.6616 53.5749C44.6436 53.284 44.7787 53.0047 45.0181 52.8382C45.5037 52.5004 45.7584 52.1514 45.8904 51.9102C45.9573 51.788 45.9944 51.6903 46.0133 51.6316C46.0228 51.6023 46.0277 51.5829 46.0295 51.5754C46.0296 51.5748 46.0297 51.5743 46.0298 51.5739C46.0627 51.3944 46.1536 51.2304 46.2888 51.1073C47.1898 50.2868 48.1908 49.4996 48.9603 48.9215C49.3464 48.6314 49.6771 48.3917 49.9119 48.2242C50.0293 48.1404 50.1229 48.0746 50.1875 48.0294C50.2198 48.0068 50.2449 47.9894 50.2621 47.9775C50.2695 47.9723 50.2755 47.9681 50.28 47.9651C51.0158 47.4292 51.4552 46.7144 51.7124 46.1096C51.8406 45.8084 51.9196 45.5433 51.9661 45.357C51.9892 45.2642 52.0039 45.1921 52.0125 45.1461C52.0168 45.1231 52.0195 45.1067 52.0209 45.0977C52.0216 45.0936 52.022 45.091 52.0221 45.09C52.0267 45.0568 52.0333 45.0239 52.0419 44.9915C52.3465 43.8369 53.0277 43.058 53.6135 42.5768C53.8072 42.4177 53.993 42.2889 54.156 42.1873C54.1553 42.1705 54.1548 42.1549 54.1544 42.1409C54.154 42.1262 54.1536 42.1129 54.1534 42.1013C54.1532 42.0924 54.1531 42.0844 54.153 42.0776C54.1529 42.0697 54.1529 42.0632 54.1528 42.0583C54.1528 42.0559 54.1528 42.0538 54.1528 42.0522L54.1528 42.05V42.0486C54.1528 42.0486 54.1528 42.0485 54.3932 42.0485C54.3932 42.0485 54.3932 42.0485 54.3932 42.0484H54.1528C54.1528 41.4846 54.441 40.9945 54.6249 40.7259C54.7286 40.5745 54.8309 40.4489 54.9071 40.3611C54.9455 40.3167 54.9784 40.2807 55.0029 40.2546C55.0151 40.2416 55.0254 40.2309 55.0332 40.2228C55.0371 40.2188 55.0405 40.2154 55.0432 40.2126L55.0461 40.2097L55.0482 40.2076L55.0491 40.2067C55.0492 40.2065 55.0494 40.2064 55.6395 40.7965L55.0494 40.2064C55.0587 40.197 55.0683 40.1879 55.0782 40.1789C55.1026 40.1567 55.1254 40.134 55.1465 40.111C55.1415 40.1072 55.1366 40.1034 55.1316 40.0996C54.8873 39.9122 54.6205 39.6944 54.3767 39.4903C54.1318 39.2854 53.9052 39.0902 53.7401 38.9466C53.6574 38.8746 53.5898 38.8153 53.5427 38.7739C53.5192 38.7531 53.5007 38.7368 53.4881 38.7256C53.4846 38.7225 53.4815 38.7198 53.4789 38.7175C53.1072 38.4063 52.9313 38.0397 52.8602 37.7294C52.8254 37.5775 52.8167 37.4445 52.8176 37.3432C52.818 37.2979 52.8203 37.2582 52.8233 37.2249C52.8315 36.7651 52.95 36.4032 53.0862 36.141C53.1559 36.007 53.2286 35.902 53.2902 35.8246C53.321 35.7859 53.3491 35.754 53.3729 35.7286C53.3849 35.7159 53.3957 35.7048 53.4053 35.6953C53.4069 35.6937 53.4085 35.6921 53.4101 35.6906C53.6488 35.448 53.8155 34.9363 53.8872 34.3091C53.92 34.0216 53.9281 33.756 53.9277 33.5616C53.9275 33.4651 53.9252 33.3879 53.9231 33.3364C53.922 33.3108 53.921 33.2916 53.9203 33.2799C53.92 33.274 53.9198 33.27 53.9196 33.2679L53.9196 33.2677C53.9196 33.2676 53.9196 33.2674 53.9196 33.2673C53.9181 33.2474 53.9174 33.2274 53.9174 33.2073C53.9174 32.5672 54.0241 32.0379 54.1335 31.6629C54.1882 31.4751 54.2441 31.3247 54.2885 31.2169C54.3107 31.1629 54.3302 31.1194 54.3453 31.0869C54.3529 31.0707 54.3594 31.0573 54.3646 31.0466C54.3673 31.0413 54.3696 31.0367 54.3715 31.0328L54.3733 31.0294L54.3742 31.0275L54.3754 31.0253L54.3762 31.0238C54.3763 31.0235 54.3764 31.0233 55.1173 31.4075L54.3764 31.0233C54.3833 31.0101 54.3905 30.997 54.398 30.9842C54.6013 30.6388 54.7266 30.251 54.8002 29.9343C54.8362 29.7791 54.8582 29.6485 54.8708 29.5593C54.8771 29.5148 54.8811 29.4812 54.8833 29.4604C54.8844 29.45 54.8851 29.4429 54.8854 29.4394C54.8855 29.4383 54.8856 29.4375 54.8856 29.4371C54.8858 29.4354 54.8859 29.4337 54.8861 29.432C54.915 29.0968 54.9591 28.8349 54.9983 28.6498C55.0179 28.5572 55.0362 28.4839 55.0508 28.4302C55.0582 28.4033 55.0645 28.3814 55.0696 28.3644C55.0712 28.3592 55.0727 28.3544 55.074 28.3502C55.0749 28.3475 55.0756 28.345 55.0764 28.3427C55.0773 28.3397 55.0782 28.337 55.0789 28.3347L55.08 28.3313L55.0805 28.3299L55.0807 28.3292L55.0808 28.3288C55.0809 28.3287 55.081 28.3285 55.8731 28.5911L55.081 28.3285C55.0903 28.3004 55.1011 28.2728 55.1133 28.2458C55.1368 28.1942 55.1808 28.052 55.2307 27.8072C55.277 27.5803 55.3183 27.3182 55.353 27.0635C55.3874 26.8104 55.4143 26.5733 55.4325 26.3989C55.4416 26.312 55.4484 26.2413 55.453 26.1927C55.4542 26.1799 55.4553 26.1687 55.4561 26.1591C55.4438 25.7246 55.1864 25.1436 54.8298 24.5812C54.7275 24.4198 54.6247 24.2717 54.5309 24.1435C52.7089 25.0136 51.1428 26.1361 49.9952 27.0828C49.3637 27.6038 48.8641 28.0672 48.5242 28.3984C48.3544 28.5639 48.2247 28.6961 48.1387 28.7856C48.0957 28.8304 48.0637 28.8645 48.043 28.8866C48.0326 28.8977 48.0251 28.9059 48.0205 28.9109L48.0177 28.9139L48.0158 28.916L48.0154 28.9164C48.0154 28.9165 48.0153 28.9165 48.0153 28.9166C48.0153 28.9165 48.0154 28.9164 47.3973 28.3557M45.9229 29.124C45.9321 29.128 45.9428 29.1327 45.9549 29.1379C45.9882 29.1522 46.0332 29.1705 46.0875 29.1905C46.1938 29.2295 46.3467 29.2786 46.5236 29.3124C46.8149 29.368 47.4713 29.4393 47.9739 28.9591C47.9882 28.9454 48.002 28.9312 48.0153 28.9166M45.9229 29.124C45.9275 29.1257 45.9319 29.1274 45.9361 29.1291L46.2496 28.3557L46.609 27.6025C46.6085 27.6023 46.6081 27.6021 46.6076 27.6018L46.6074 27.6017L46.6072 27.6017C46.6074 27.6017 46.6075 27.6018 46.6076 27.6018L46.6082 27.6021L46.6086 27.6023C46.6088 27.6024 46.609 27.6025 46.2496 28.3557C45.8901 29.1089 45.8904 29.109 45.8906 29.1091L45.892 29.1097L45.8942 29.1108C45.8952 29.1113 45.8964 29.1118 45.8977 29.1124L45.8994 29.1132C45.9033 29.115 45.908 29.1172 45.9134 29.1197C45.9164 29.121 45.9195 29.1224 45.9229 29.124ZM45.9229 29.124C45.7671 29.0646 45.4146 28.9911 44.8826 28.9244C44.3653 28.8596 43.7609 28.8104 43.1781 28.7736C42.5973 28.7369 42.0473 28.7133 41.642 28.6988C41.4396 28.6916 41.2739 28.6866 41.159 28.6835C41.1016 28.682 41.057 28.6809 41.0269 28.6802C41.0206 28.68 41.0149 28.6799 41.0099 28.6798C41.0058 28.6797 41.0022 28.6796 40.9991 28.6795C41.0013 28.6795 41.0034 28.6794 41.0052 28.6794L41.0156 28.6792L41.016 28.6792L41.016 28.6792C41.016 28.6792 41.016 28.6792 41.016 28.6792M36.0731 29.1241C36.2298 29.0646 36.583 28.9911 37.1149 28.9244C37.6325 28.8596 38.2371 28.8104 38.8199 28.7736C39.4009 28.7369 39.9508 28.7133 40.3561 28.6988C40.5585 28.6916 40.7243 28.6866 40.8391 28.6835C40.8965 28.682 40.9412 28.6809 40.9712 28.6802C40.9826 28.6799 40.9919 28.6797 40.9991 28.6795C40.9968 28.6795 40.9947 28.6794 40.9929 28.6794L40.9825 28.6792L40.9821 28.6792L40.9821 28.6792C40.9821 28.6792 40.9821 28.6792 40.9821 28.6792M36.0731 29.1241C36.0767 29.1225 36.08 29.121 36.0831 29.1196C36.0885 29.1171 36.0932 29.115 36.0971 29.1132C36.0984 29.1126 36.0996 29.112 36.1007 29.1115L36.1024 29.1107L36.1045 29.1097L36.106 29.109C36.1062 29.1089 36.1064 29.1088 35.7468 28.3557L36.0597 29.1293C36.064 29.1276 36.0685 29.1258 36.0731 29.1241ZM36.0731 29.1241C36.0641 29.1281 36.0536 29.1327 36.0416 29.1379C36.0083 29.1521 35.9633 29.1705 35.909 29.1904C35.8027 29.2295 35.6498 29.2786 35.473 29.3124C35.1814 29.3681 34.5255 29.4391 34.0228 28.9594C34.0085 28.9457 33.9946 28.9314 33.9812 28.9167L33.9811 28.9166C33.981 28.9165 33.9809 28.9163 34.599 28.3557L33.9809 28.9163L33.9805 28.916C33.9797 28.9151 33.9781 28.9133 33.9758 28.9108C33.9712 28.9058 33.9637 28.8977 33.9534 28.8866C33.9327 28.8644 33.9006 28.8303 33.8576 28.7856C33.7716 28.6961 33.642 28.5638 33.4721 28.3983C33.1322 28.067 32.6327 27.6036 32.0011 27.0826C30.8536 26.1359 29.2875 25.0135 27.4656 24.1435M54.8855 29.4387L54.8855 29.439L54.8855 29.4393C54.8855 29.4391 54.8855 29.4389 54.8855 29.4387ZM54.5627 36.8976L54.5633 36.897L54.5646 36.8958L54.5648 36.8957C54.5641 36.8963 54.5634 36.8969 54.5627 36.8976ZM54.4794 37.4197L54.4795 37.4194L54.4796 37.4188C54.4795 37.4191 54.4795 37.4194 54.4794 37.4197ZM55.3773 43.422L55.3772 43.4221C55.3773 43.4221 55.3773 43.422 55.3773 43.422ZM52.022 45.0911L52.0219 45.0914L52.0217 45.0927L52.0217 45.0929C52.0217 45.0931 52.0217 45.0934 52.8488 45.2044M52.022 45.0911C52.0219 45.0916 52.0218 45.0922 52.0217 45.0927L52.022 45.0911ZM46.0273 51.5884L46.0272 51.589L46.0271 51.5894C46.0272 51.5891 46.0272 51.5887 46.0273 51.5884ZM41.7371 57.0855L41.7365 57.0859L41.7359 57.0863L41.7355 57.0865C41.736 57.0862 41.7366 57.0858 41.7371 57.0855ZM42.2083 57.7743L41.7352 57.0868C41.7353 57.0867 41.7354 57.0866 41.7355 57.0865C41.7354 57.0867 41.7352 57.0868 42.2083 57.7743ZM40.26 57.086C40.2601 57.086 40.2602 57.0861 40.2603 57.0862C40.2605 57.0863 40.2607 57.0864 40.2608 57.0865M40.2603 57.0862L40.26 57.086L40.2603 57.0862ZM37.3346 53.5775C37.3346 53.5773 37.3346 53.577 37.3346 53.5767L37.3346 53.5775ZM36.5018 53.5233C37.3345 53.5782 37.3345 53.5779 37.3346 53.5775C37.3346 53.5778 37.3345 53.578 37.3345 53.5782L36.5018 53.5233ZM35.9693 51.5898C35.9693 51.5897 35.9693 51.5896 35.9692 51.5894L35.9693 51.5898ZM35.1457 51.7243C35.9695 51.5907 35.9694 51.5902 35.9693 51.5898C35.9694 51.5901 35.9694 51.5904 35.9695 51.5907L35.1457 51.7243ZM26.6237 43.4239C26.6232 43.4237 26.6226 43.4235 26.622 43.4232L26.6221 43.4233L26.6232 43.4237L26.6237 43.4239ZM27.4317 36.8958L27.4317 36.8958L27.4317 36.8958ZM26.1485 42.3608C26.1485 42.3608 26.1486 42.3602 26.1489 42.3591C26.1486 42.3603 26.1485 42.3608 26.1485 42.3608ZM55.8479 42.3608C55.8479 42.3608 55.8477 42.3602 55.8474 42.3591C55.8478 42.3602 55.8479 42.3608 55.8479 42.3608Z" fill="white"/>
<path fill-rule="evenodd" clip-rule="evenodd" d="M40.9985 27.8447C40.9985 27.8447 36.7981 27.9301 35.7462 28.3556C35.7462 28.3556 34.9812 28.7209 34.5985 28.3556C34.5985 28.3556 31.5471 24.9912 27.2177 23.1138C27.2177 23.1138 25.7051 24.809 25.7051 26.1913C25.7051 26.1913 25.8616 28.0169 26.1222 28.591C26.1222 28.591 26.2264 28.9039 26.2787 29.5038C26.2787 29.5038 26.3568 30.5207 26.8785 31.4074C26.8785 31.4074 27.2434 32.1118 27.2434 33.2072C27.2434 33.2072 27.0869 35.3715 27.9997 36.2847C27.9997 36.2847 28.3388 36.5977 28.3388 37.2756C28.3388 37.2756 28.4169 37.7189 27.9735 38.0842C27.9735 38.0842 26.3302 39.5445 25.7827 39.8313C25.7827 39.8313 25.8781 40.3614 26.3563 40.7964C26.3563 40.7964 27.0084 41.4485 27.0084 42.0483C27.0084 42.0483 27.0084 42.4655 26.93 42.6477C26.93 42.6477 28.6509 43.3264 29.1466 45.2043C29.1466 45.2043 29.4334 47.342 31.2333 48.6462C31.2333 48.6462 33.398 50.1327 35.1451 51.7242C35.1451 51.7242 35.3016 52.6889 36.5012 53.5232C36.5012 53.5232 36.319 56.2877 38.5356 57.1229C38.5356 57.1229 39.1616 57.3836 39.7875 57.7742C39.7875 57.7742 40.356 58.1656 40.9972 58.1656C41.6388 58.1656 42.2077 57.7742 42.2077 57.7742C42.6089 57.5271 43.0274 57.3095 43.4601 57.1229C45.6762 56.2877 45.494 53.5232 45.494 53.5232C46.6936 52.6889 46.8501 51.7242 46.8501 51.7242C48.5972 50.1331 50.7615 48.6462 50.7615 48.6462C52.5614 47.342 52.8482 45.2043 52.8482 45.2043C53.3439 43.326 55.0653 42.6477 55.0653 42.6477C54.9868 42.4655 54.9868 42.0483 54.9868 42.0483C54.9868 41.4485 55.6389 40.7964 55.6389 40.7964C56.1175 40.3614 56.2126 39.8313 56.2126 39.8313C55.6642 39.5445 54.0221 38.0842 54.0221 38.0842C53.5784 37.7189 53.6568 37.2756 53.6568 37.2756C53.6568 36.5973 53.9955 36.2847 53.9955 36.2847C54.9083 35.372 54.7514 33.2072 54.7514 33.2072C54.7514 32.1118 55.1167 31.4074 55.1167 31.4074C55.6385 30.5207 55.7169 29.5038 55.7169 29.5038C55.7688 28.9039 55.8726 28.591 55.8726 28.591C56.1332 28.0173 56.2906 26.1913 56.2906 26.1913C56.2906 24.809 54.7776 23.1138 54.7776 23.1138C50.4481 24.9917 47.3968 28.3556 47.3968 28.3556C47.0145 28.7209 46.249 28.3556 46.249 28.3556C45.1993 27.9301 40.9985 27.8447 40.9985 27.8447Z" fill="#5484BE"/>
<path fill-rule="evenodd" clip-rule="evenodd" d="M41.0056 57.5253C40.5204 57.5253 40.5522 57.2637 40.5522 57.2637C40.5522 57.1726 41.0056 57.1726 41.0056 57.1726C41.0056 57.1726 41.4594 57.1726 41.4594 57.2637C41.4594 57.2637 41.4908 57.5253 41.0056 57.5253ZM41.0034 56.3509C39.2027 56.3509 38.6443 55.9686 38.6443 55.9686C37.7402 55.49 37.7228 54.3689 37.7228 54.3689C37.7228 52.4386 38.3139 52.2482 38.3139 52.2482C38.3923 52.6823 39.0096 52.6304 39.0096 52.6304C38.7485 51.7961 39.3574 50.1266 39.3574 50.1266C40.3308 47.3969 40.1399 46.7017 40.1399 46.7017C39.9485 45.7976 40.1399 45.1019 40.1399 45.1019C40.2789 44.7026 40.2785 44.3892 40.2785 44.3892C40.2611 43.8334 39.8613 43.2763 39.8613 43.2763C39.4786 42.6503 39.1138 42.7894 39.1138 42.7894C39.1656 41.5205 37.6011 40.6334 37.6011 40.6334C36.2276 39.8688 34.1588 40.3557 34.1588 40.3557C32.2809 40.6687 30.9418 40.3557 30.9418 40.3557C31.7417 41.486 34.1235 40.9468 34.1235 40.9468C36.0184 40.6338 36.888 41.0684 36.888 41.0684C37.7053 41.3116 39.5484 44.0936 39.5484 44.0936C39.8265 44.5805 39.5135 45.0844 39.5135 45.0844C39.2702 45.6232 39.1138 47.1363 39.1138 47.1363C39.0527 48.2744 38.2964 50.8219 38.2964 50.8219C37.34 50.8737 37.3923 52.4914 37.3923 52.4914C37.357 52.9774 37.0275 52.9604 37.0275 52.9604C36.8361 52.9604 36.6622 52.5433 36.6622 52.5433C36.3492 51.8476 35.3754 51.1523 35.3754 51.1523C34.6453 50.6832 34.2281 49.6392 34.2281 49.6392C33.5843 48.4745 32.6806 48.2138 32.6806 48.2138C32.124 48.0307 31.1157 47.223 31.1157 47.223C30.2988 46.6145 30.6807 45.6411 30.6807 45.6411C31.0111 45.6411 31.0634 45.7797 31.0634 45.7797C31.2548 46.0404 31.8628 46.0055 31.8628 46.0055C32.2107 46.0055 32.3672 46.1101 32.3672 46.1101C32.4888 46.1969 32.5407 46.4405 32.5407 46.4405C32.6279 46.8577 32.9583 46.9623 32.9583 46.9623C33.0106 46.5273 33.4278 46.4754 33.4278 46.4754C33.1322 46.0234 32.6104 45.4846 32.6104 45.4846C32.1065 45.0156 31.0804 44.6843 31.0804 44.6843C29.9501 44.2671 28.3333 42.7022 28.3333 42.7022C28.7853 41.5196 28.0364 40.8082 27.9336 40.7206C27.6289 40.4594 27.5508 39.799 27.5508 39.799C27.516 39.4512 27.7069 39.3296 27.7069 39.3296C27.9157 39.1726 28.4549 38.6862 28.4549 38.6862C29.3246 37.956 29.2718 36.4783 29.2718 36.4783C29.2718 35.9046 28.8202 35.2612 28.8202 35.2612C28.2466 34.2874 28.281 32.9836 28.281 32.9836C28.2287 32.0272 27.8638 31.2103 27.8638 31.2103C27.5508 30.6367 27.6032 30.1323 27.6032 30.1323C27.6032 29.3499 27.1337 28.22 27.1337 28.22C26.6816 27.1594 26.6816 25.9598 26.6816 25.9598C26.6991 25.2297 26.9946 24.36 26.9946 24.36C27.2923 24.3513 27.3595 24.3949 27.3595 24.3949C29.4806 25.2122 30.5412 26.1682 30.5412 26.1682C31.0281 26.5509 31.6192 26.8809 31.6192 26.8809C32.4884 27.3852 33.1318 28.3761 33.1318 28.3761C33.375 28.7065 33.8275 29.0369 33.8275 29.0369C34.1799 29.274 34.4962 29.5609 34.7664 29.8887C35.7834 31.0621 36.453 30.7234 36.453 30.7234C35.8619 29.9933 35.8793 29.5412 35.8793 29.5412C35.8793 29.4196 36.0009 29.298 36.0009 29.298C37.2005 28.533 41.003 28.5993 41.003 28.5993C41.003 28.5993 44.8058 28.533 46.0055 29.298C46.0055 29.298 46.1271 29.4196 46.1271 29.5412C46.1271 29.5412 46.1441 29.9933 45.5534 30.7234C45.5534 30.7234 46.2225 31.0621 47.24 29.8887C47.24 29.8887 47.5874 29.4366 48.178 29.0369C48.178 29.0369 48.6309 28.7065 48.8746 28.3761C48.8746 28.3761 49.5176 27.3852 50.3868 26.8809C50.3868 26.8809 50.9774 26.5509 51.4648 26.1682C51.4648 26.1682 52.5258 25.2122 54.6465 24.3949C54.6465 24.3949 54.7145 24.3513 55.0118 24.36C55.0118 24.36 55.3073 25.2297 55.3252 25.9598C55.3252 25.9598 55.3252 27.1594 54.8732 28.22C54.8732 28.22 54.4041 29.3499 54.4041 30.1323C54.4041 30.1323 54.456 30.6367 54.1426 31.2103C54.1426 31.2103 53.7781 32.0277 53.7254 32.9836C53.7254 32.9836 53.7603 34.2874 53.1866 35.2612C53.1866 35.2612 52.7346 35.9046 52.7346 36.4783C52.7346 36.4783 52.6827 37.956 53.5519 38.6862C53.5519 38.6862 54.0907 39.1726 54.2995 39.3296C54.2995 39.3296 54.4909 39.4512 54.456 39.799C54.456 39.799 54.3775 40.4599 54.0737 40.7206C53.9708 40.8082 53.2215 41.5196 53.6735 42.7022C53.6735 42.7022 52.0567 44.2671 50.926 44.6843C50.926 44.6843 49.8999 45.0156 49.396 45.4846C49.396 45.4846 48.875 46.0234 48.5786 46.4754C48.5786 46.4754 48.9958 46.5273 49.0485 46.9623C49.0485 46.9623 49.379 46.8577 49.4657 46.4405C49.4657 46.4405 49.5176 46.1969 49.6392 46.1101C49.6392 46.1101 49.7957 46.0055 50.1431 46.0055C50.1431 46.0055 50.7516 46.0404 50.9434 45.7797C50.9434 45.7797 50.9953 45.6411 51.3257 45.6411C51.3257 45.6411 51.708 46.614 50.8907 47.223C50.8907 47.223 49.8829 48.0312 49.3258 48.2138C49.3258 48.2138 48.4226 48.4745 47.7787 49.6392C47.7787 49.6392 47.3616 50.6832 46.631 51.1523C46.631 51.1523 45.658 51.848 45.3446 52.5433C45.3446 52.5433 45.1711 52.9604 44.9793 52.9604C44.9793 52.9604 44.6489 52.9774 44.614 52.4914C44.614 52.4914 44.6668 50.8737 43.71 50.8219C43.71 50.8219 42.9541 48.2744 42.8926 47.1363C42.8926 47.1363 42.737 45.6232 42.4933 45.0844C42.4933 45.0844 42.1808 44.5805 42.4585 44.0936C42.4585 44.0936 44.3019 41.3116 45.1193 41.0684C45.1193 41.0684 45.9885 40.6334 47.8838 40.9468C47.8838 40.9468 50.266 41.486 51.0655 40.3557C51.0655 40.3557 49.7264 40.6687 47.8489 40.3557C47.8489 40.3557 45.7792 39.8688 44.4061 40.6334C44.4061 40.6334 42.8412 41.5205 42.8931 42.7894C42.8931 42.7894 42.5287 42.6508 42.1455 43.2763C42.1455 43.2763 41.7462 43.8329 41.7283 44.3892C41.7283 44.3892 41.7283 44.7026 41.867 45.1019C41.867 45.1019 42.0583 45.7976 41.867 46.7017C41.867 46.7017 41.676 47.3974 42.6494 50.1266C42.6494 50.1266 43.2579 51.7961 42.9977 52.6304C42.9977 52.6304 43.6149 52.6823 43.6934 52.2482C43.6934 52.2482 44.2841 52.4391 44.2841 54.3689C44.2841 54.3689 44.2671 55.49 43.363 55.9686C43.363 55.9691 42.8046 56.3509 41.0034 56.3509ZM42.2671 31.2103C43.023 30.767 42.9711 30.3237 42.9711 30.3237C42.2152 30.5194 41.4847 31.2103 41.4847 31.2103C41.1263 31.5691 41.1721 31.9666 41.1721 31.9666C41.1721 32.3842 41.5374 32.6972 41.5374 32.6972C41.329 31.7055 42.2671 31.2103 42.2671 31.2103ZM44.8625 35.8393C44.8625 35.8393 44.8499 36.035 44.6803 36.1527C44.6803 36.1527 45.41 36.2176 45.8015 36.3998C45.8015 36.3998 46.3882 36.7259 46.8189 36.4783C46.8189 36.4783 46.4928 36.4914 46.0491 36.2045C46.0491 36.2045 45.488 35.8393 44.8625 35.8393ZM45.7104 41.3356C45.5931 41.333 45.4765 41.3538 45.3674 41.3968C45.2583 41.4399 45.1589 41.5043 45.075 41.5863C44.9912 41.6682 44.9245 41.7662 44.879 41.8742C44.8335 41.9823 44.81 42.0984 44.81 42.2157C44.81 42.333 44.8334 42.4491 44.8788 42.5572C44.9243 42.6653 44.9909 42.7633 45.0747 42.8453C45.1586 42.9273 45.2579 42.9918 45.367 43.0349C45.4761 43.078 45.5927 43.0988 45.7099 43.0963C45.94 43.0912 46.159 42.9963 46.3199 42.8318C46.4809 42.6673 46.571 42.4463 46.5711 42.2162C46.5711 41.986 46.4811 41.765 46.3202 41.6004C46.1593 41.4359 45.9404 41.3408 45.7104 41.3356ZM45.9444 42.2157C45.9444 42.2779 45.9197 42.3376 45.8757 42.3816C45.8318 42.4255 45.7721 42.4502 45.7099 42.4502C45.6477 42.4502 45.5881 42.4255 45.5441 42.3816C45.5001 42.3376 45.4754 42.2779 45.4754 42.2157C45.4754 42.1535 45.5001 42.0939 45.5441 42.0499C45.5881 42.0059 45.6477 41.9812 45.7099 41.9812C45.7721 41.9812 45.8318 42.0059 45.8757 42.0499C45.9197 42.0939 45.9444 42.1535 45.9444 42.2157ZM45.7792 43.8155C47.6924 43.8155 48.6048 42.1551 48.6048 42.1551C48.9086 41.6595 48.4396 41.6425 48.4396 41.6425C48.2482 41.6425 47.3786 42.5984 47.3786 42.5984C46.6659 43.4498 45.5883 43.3112 45.5883 43.3112C44.6324 43.3112 44.6576 43.9284 44.6576 43.9284C44.9449 43.8155 45.7792 43.8155 45.7792 43.8155ZM47.6013 47.1716C47.2879 47.4841 47.0665 47.5495 47.0665 47.5495C47.4052 48.1232 47.9527 47.5752 47.9527 47.5752C48.2787 47.2753 48.7351 47.4056 48.7351 47.4056C48.2787 46.5713 47.6013 47.1716 47.6013 47.1716ZM44.7976 51.8005C44.7976 51.8005 45.1493 51.4871 45.1493 50.9269C45.1493 50.9269 45.1367 50.5355 44.7322 49.8829C44.7322 49.8829 44.315 49.2443 44.315 48.2796C44.315 48.2796 44.2758 47.0665 44.7322 44.6407C44.7322 44.6407 44.7714 44.2754 44.6018 44.2754C44.6018 44.2754 44.55 44.3146 44.4715 44.5369C44.4715 44.5369 43.689 47.0273 43.689 48.0839C43.689 48.0839 43.6237 49.0094 44.315 50.2225C44.315 50.2229 44.8752 51.1357 44.7976 51.8005ZM40.4694 32.6968C40.4694 32.6968 40.8343 32.3838 40.8343 31.9662C40.8343 31.9662 40.8801 31.5687 40.5213 31.2099C40.5213 31.2099 39.7912 30.519 39.0349 30.3233C39.0349 30.3233 38.9825 30.7666 39.7393 31.2099C39.7397 31.2103 40.6782 31.7055 40.4694 32.6968ZM35.9578 36.2045C35.514 36.4914 35.1884 36.4783 35.1884 36.4783C35.6186 36.7259 36.2054 36.3998 36.2054 36.3998C36.5964 36.2176 37.327 36.1527 37.327 36.1527C37.1574 36.035 37.1443 35.8393 37.1443 35.8393C36.5184 35.8393 35.9578 36.2045 35.9578 36.2045ZM35.4168 42.2157C35.4168 42.3314 35.4396 42.4459 35.4839 42.5528C35.5282 42.6596 35.5931 42.7567 35.6749 42.8384C35.7567 42.9202 35.8538 42.9851 35.9607 43.0293C36.0676 43.0735 36.1821 43.0963 36.2978 43.0963C36.4134 43.0962 36.528 43.0734 36.6348 43.0291C36.7417 42.9848 36.8387 42.9199 36.9205 42.8381C37.0023 42.7563 37.0671 42.6592 37.1114 42.5524C37.1556 42.4455 37.1783 42.3309 37.1783 42.2153C37.1783 41.9817 37.0854 41.7577 36.9202 41.5926C36.755 41.4274 36.5309 41.3347 36.2973 41.3348C36.0638 41.3348 35.8398 41.4277 35.6746 41.5929C35.5095 41.7581 35.4168 41.9821 35.4168 42.2157ZM36.2969 41.9816C36.3285 41.9802 36.3601 41.9852 36.3897 41.9962C36.4194 42.0073 36.4465 42.0243 36.4694 42.0461C36.4923 42.0679 36.5106 42.0942 36.5231 42.1232C36.5356 42.1523 36.5421 42.1836 36.5422 42.2153C36.5423 42.2469 36.5359 42.2782 36.5236 42.3074C36.5113 42.3365 36.4931 42.3629 36.4703 42.3848C36.4476 42.4068 36.4206 42.4239 36.391 42.4351C36.3614 42.4464 36.3298 42.4515 36.2982 42.4502C36.2378 42.4478 36.1807 42.4221 36.1387 42.3786C36.0968 42.3351 36.0733 42.277 36.0731 42.2166C36.073 42.1561 36.0961 42.0979 36.1378 42.0542C36.1795 42.0104 36.2365 41.9844 36.2969 41.9816ZM37.3488 43.9284C37.3488 43.9284 37.3749 43.3112 36.4185 43.3112C36.4185 43.3112 35.3405 43.4498 34.6278 42.5984C34.6278 42.5984 33.7586 41.6425 33.5673 41.6425C33.5673 41.6425 33.0978 41.6595 33.402 42.1551C33.402 42.1551 34.3148 43.8155 36.2272 43.8155C36.2272 43.8155 37.0619 43.8155 37.3488 43.9284ZM33.2717 47.4056C33.2717 47.4056 33.7281 47.2753 34.0537 47.5752C34.0537 47.5752 34.6017 48.1236 34.9408 47.5495C34.9408 47.5495 34.7189 47.4841 34.4059 47.1716C34.4059 47.1716 33.7281 46.5713 33.2717 47.4056ZM37.6923 50.2229C38.3832 49.0098 38.3182 48.0844 38.3182 48.0844C38.3182 47.0277 37.5358 44.5374 37.5358 44.5374C37.4577 44.3151 37.4054 44.2758 37.4054 44.2758C37.2359 44.2758 37.2751 44.6411 37.2751 44.6411C37.731 47.0665 37.6923 48.2801 37.6923 48.2801C37.6923 49.2447 37.2751 49.8834 37.2751 49.8834C36.8706 50.5355 36.8575 50.9274 36.8575 50.9274C36.8575 51.4875 37.2097 51.8009 37.2097 51.8009C37.1317 51.1357 37.6923 50.2229 37.6923 50.2229ZM28.1598 26.2201C28.1598 26.2201 29.4815 27.2283 30.3851 27.7152C30.3851 27.7152 31.1676 28.1324 31.7064 28.8974C31.7064 28.8974 32.0368 29.2797 32.0368 29.9235C32.0368 29.9235 32.0193 30.206 31.9147 30.4275C31.9147 30.4275 31.7452 30.8708 32.0019 31.1925C32.0019 31.1925 32.287 31.4941 32.4622 31.8843L32.4714 31.9052C32.6972 32.3834 32.2447 32.8093 32.2447 32.8093C32.2447 32.8093 31.08 34.0786 30.5412 34.409C30.5412 34.409 29.8546 34.9391 29.7068 33.974C29.7068 33.974 29.2722 31.4531 28.9244 30.8791C28.9244 30.8791 28.6637 30.4274 28.7156 29.9754C28.7156 29.9754 28.8895 28.6886 28.4724 27.9933C28.4728 27.9938 28.0556 27.159 28.1598 26.2201ZM33.7931 32.2535C33.7931 32.2535 32.8541 32.3232 32.8541 30.0103C32.8541 30.0103 32.9587 28.4632 31.3938 27.4371C31.3938 27.4371 28.5077 25.6464 28.1075 25.2467C28.1075 25.2467 27.8725 25.0379 27.6206 25.0379C27.6206 25.0379 27.3769 25.0379 27.3769 25.4206C27.3769 25.4206 27.4118 26.2031 27.655 27.159C27.655 27.159 27.9859 28.6542 27.9859 29.8368C27.9859 29.8368 28.0901 31.1236 28.3507 31.6973C28.3507 31.6973 28.8202 32.4797 28.8202 33.488C28.8202 33.488 28.7849 34.9138 29.5329 35.3659C29.5329 35.3659 30.0891 35.644 30.4196 35.3833C30.42 35.3829 31.5852 34.6527 33.7931 32.2535ZM53.5336 27.9938C53.1164 28.6895 53.2908 29.9758 53.2908 29.9758C53.3427 30.4279 53.0816 30.8795 53.0816 30.8795C52.7341 31.4536 52.2991 33.9744 52.2991 33.9744C52.1518 34.9395 51.4648 34.4095 51.4648 34.4095C50.926 34.0791 49.7612 32.8097 49.7612 32.8097C49.7612 32.8097 49.3092 32.3838 49.5346 31.9056C49.5381 31.8986 49.5416 31.8917 49.5437 31.8847C49.719 31.4946 50.0045 31.1929 50.0045 31.1929C50.2608 30.8712 50.0912 30.4279 50.0912 30.4279C49.9866 30.2064 49.9696 29.924 49.9696 29.924C49.9696 29.2806 50.3 28.8978 50.3 28.8978C50.8388 28.1328 51.6213 27.7157 51.6213 27.7157C52.5253 27.2288 53.8466 26.2205 53.8466 26.2205C53.9516 27.159 53.5336 27.9938 53.5336 27.9938ZM51.5873 35.3829C51.9168 35.6435 52.4735 35.3654 52.4735 35.3654C53.2211 34.9134 53.1862 33.4875 53.1862 33.4875C53.1862 32.4793 53.6552 31.6968 53.6552 31.6968C53.9168 31.1232 54.0205 29.8364 54.0205 29.8364C54.0205 28.6542 54.3509 27.1586 54.3509 27.1586C54.5946 26.2026 54.6295 25.4202 54.6295 25.4202C54.6295 25.0374 54.3858 25.0374 54.3858 25.0374C54.1338 25.0374 53.8989 25.2462 53.8989 25.2462C53.4987 25.646 50.6135 27.4367 50.6135 27.4367C49.0485 28.4628 49.1523 30.0099 49.1523 30.0099C49.1523 32.3228 48.2142 32.253 48.2142 32.253C50.4217 34.6527 51.5873 35.3829 51.5873 35.3829ZM41.0056 55.3209C40.064 55.3209 40.0043 54.1213 40.0043 54.1213C40.0043 53.4953 41.0056 53.4953 41.0056 53.4953C41.0056 53.4953 42.0069 53.4953 42.0069 54.1213C42.0069 54.1213 41.9472 55.3209 41.0056 55.3209ZM42.6071 54.6688C43.2065 53.7699 42.5936 53.2351 42.5936 53.2351C41.9942 52.7002 41.0056 52.7133 41.0056 52.7133C41.0056 52.7133 40.0174 52.7006 39.4176 53.2351C39.4176 53.2351 38.8047 53.7699 39.4045 54.6688C39.4045 54.6688 40.1346 55.8165 41.0056 55.8165C41.8765 55.8165 42.6071 54.6688 42.6071 54.6688Z" fill="#EFC031"/>
</svg>
