<svg width="18" height="18" viewBox="0 0 18 18" fill="none" xmlns="http://www.w3.org/2000/svg">
<g clip-path="url(#clip0_419_21841)">
<path fill-rule="evenodd" clip-rule="evenodd" d="M7.51963 15.6482C6.60034 15.3614 5.8719 14.3976 6.10285 13.3745L6.43175 11.4497L3.68068 11.4497C2.97653 11.4497 2.31992 11.1894 1.90379 10.673C1.47662 10.1429 1.38559 9.44217 1.64481 8.76896L3.31693 4.11826C3.48736 3.53105 3.90038 3.06917 4.36003 2.76162C4.83041 2.44691 5.41225 2.24998 5.99631 2.24998L8.66279 2.24998C8.93939 2.24998 9.26621 2.2908 9.57161 2.37059C9.84231 2.44131 10.19 2.56629 10.4604 2.7948L11.7946 3.73931C11.8736 3.61884 11.9713 3.50645 12.091 3.40536C12.5286 3.036 13.1071 2.95579 13.6449 2.95579L14.3466 2.95579C14.8844 2.95579 15.4629 3.036 15.9004 3.40536C16.3709 3.80245 16.5 4.37376 16.5 4.92491L16.5 11.213C16.5 11.7641 16.3709 12.3355 15.9004 12.7326C15.4629 13.1019 14.8844 13.1821 14.3466 13.1821L13.6449 13.1821C13.1071 13.1821 12.5286 13.1019 12.091 12.7326C11.9627 12.6243 11.8598 12.503 11.778 12.3728L9.89936 14.9286C9.64134 15.2817 9.24354 15.5191 8.8526 15.642C8.45761 15.7661 7.97922 15.8022 7.51963 15.6482ZM11.4915 10.2299L11.4915 5.36255L9.52446 3.97005L9.49067 3.93915C9.49082 3.93929 9.49067 3.93914 9.49067 3.93915C9.49056 3.93928 9.47033 3.92317 9.41664 3.89863C9.35935 3.87243 9.28349 3.84566 9.19245 3.82187C9.00667 3.77334 8.8072 3.74998 8.66279 3.74998L5.99631 3.74998C5.73832 3.74998 5.44303 3.8418 5.19416 4.00831C4.94272 4.17654 4.80087 4.37741 4.75498 4.54522L4.74724 4.57355L3.04976 9.29477L3.04605 9.30428C2.95938 9.52619 3.00996 9.65511 3.07178 9.73183C3.14684 9.82498 3.33228 9.94969 3.68068 9.94969L6.4875 9.94969C7.27487 9.94969 8.08524 10.5932 7.93022 11.5854L7.92939 11.5907L7.57327 13.6748L7.56714 13.7C7.5388 13.8166 7.63983 14.1167 7.96924 14.2171L7.98161 14.2209L7.99384 14.2251C8.09185 14.2587 8.23996 14.2622 8.4028 14.211C8.57272 14.1576 8.6656 14.0747 8.68829 14.0435L8.69001 14.0412L11.4915 10.2299ZM6.50182 11.4514C6.50181 11.4514 6.50144 11.4513 6.50075 11.451L6.50182 11.4514ZM14.9611 11.5344C14.9794 11.4821 15 11.3835 15 11.213L15 4.92491C15 4.75439 14.9794 4.65582 14.9611 4.60354C14.9465 4.56206 14.9352 4.5534 14.9332 4.55181C14.9332 4.55186 14.9331 4.55173 14.9332 4.55181C14.9147 4.53618 14.7912 4.45579 14.3466 4.45579L13.6449 4.45579C13.2003 4.45579 13.0771 4.53598 13.0585 4.55162C13.0587 4.55153 13.0585 4.55166 13.0585 4.55162C13.0565 4.5532 13.0449 4.56206 13.0304 4.60354C13.0121 4.65582 12.9915 4.75439 12.9915 4.92491L12.9915 11.213C12.9915 11.3835 13.0121 11.4821 13.0304 11.5344C13.0449 11.5758 13.0562 11.5845 13.0583 11.5861C13.0584 11.5862 13.0582 11.586 13.0583 11.5861C13.0768 11.6017 13.2003 11.6821 13.6449 11.6821L14.3466 11.6821C14.7912 11.6821 14.9144 11.6019 14.9329 11.5863C14.933 11.5862 14.9328 11.5864 14.9329 11.5863C14.935 11.5847 14.9465 11.5758 14.9611 11.5344Z" fill="#FFE000"/>
</g>
<defs>
<clipPath id="clip0_419_21841">
<rect width="18" height="18" fill="white" transform="translate(18 18) rotate(180)"/>
</clipPath>
</defs>
</svg>
