<svg width="18" height="18" viewBox="0 0 18 18" fill="none" xmlns="http://www.w3.org/2000/svg">
<g clip-path="url(#clip0_419_21833)">
<path fill-rule="evenodd" clip-rule="evenodd" d="M10.4804 2.35185C11.3997 2.63859 12.1281 3.60237 11.8971 4.62555L11.5683 6.55031H14.3193C15.0235 6.55031 15.6801 6.81059 16.0962 7.327C16.5234 7.85711 16.6144 8.55783 16.3552 9.23104L14.6831 13.8817C14.5126 14.469 14.0996 14.9308 13.64 15.2384C13.1696 15.5531 12.5878 15.75 12.0037 15.75H9.33721C9.06061 15.75 8.73379 15.7092 8.42839 15.6294C8.15769 15.5587 7.80998 15.4337 7.5396 15.2052L6.20541 14.2607C6.12639 14.3812 6.02874 14.4935 5.90897 14.5946C5.47138 14.964 4.8929 15.0442 4.35511 15.0442H3.65341C3.11562 15.0442 2.53714 14.964 2.09955 14.5946C1.6291 14.1975 1.5 13.6262 1.5 13.0751V6.787C1.5 6.23585 1.6291 5.66454 2.09955 5.26745C2.53714 4.8981 3.11562 4.81788 3.65341 4.81788H4.35511C4.8929 4.81788 5.47138 4.8981 5.90897 5.26745C6.03726 5.37574 6.14017 5.49698 6.222 5.62723L8.10064 3.07143C8.35866 2.71831 8.75646 2.48089 9.1474 2.35801C9.54239 2.23386 10.0208 2.19778 10.4804 2.35185ZM6.50852 7.7701V12.6374L8.47554 14.0299L8.50933 14.0609C8.50918 14.0607 8.50933 14.0609 8.50933 14.0609C8.50944 14.0607 8.52967 14.0768 8.58335 14.1014C8.64065 14.1276 8.7165 14.1543 8.80755 14.1781C8.99333 14.2267 9.1928 14.25 9.33721 14.25H12.0037C12.2617 14.25 12.557 14.1582 12.8058 13.9917C13.0573 13.8235 13.1991 13.6226 13.245 13.4548L13.2528 13.4265L14.9502 8.70523L14.9539 8.69573C15.0406 8.47381 14.99 8.34489 14.9282 8.26818C14.8532 8.17502 14.6677 8.05031 14.3193 8.05031H11.5125C10.7251 8.05031 9.91476 7.40685 10.0698 6.41458L10.0706 6.40929L10.4267 4.32519L10.4329 4.29998C10.4612 4.18337 10.3602 3.8833 10.0308 3.78289L10.0184 3.77912L10.0062 3.77493C9.90815 3.74132 9.76004 3.7378 9.5972 3.78898C9.42728 3.84239 9.3344 3.92534 9.31171 3.95647L9.30999 3.95883L6.50852 7.7701ZM11.4982 6.54858C11.4982 6.54855 11.4986 6.54866 11.4992 6.54896L11.4982 6.54858ZM3.03891 6.46563C3.02059 6.51791 3 6.61648 3 6.787V13.0751C3 13.2456 3.02059 13.3442 3.03891 13.3965C3.05345 13.4379 3.06475 13.4466 3.06682 13.4482C3.06676 13.4481 3.06693 13.4483 3.06682 13.4482C3.08534 13.4638 3.20881 13.5442 3.65341 13.5442H4.35511C4.79972 13.5442 4.92293 13.464 4.94145 13.4484C4.94134 13.4485 4.94151 13.4483 4.94145 13.4484C4.94352 13.4468 4.95507 13.4379 4.96961 13.3965C4.98793 13.3442 5.00852 13.2456 5.00852 13.0751V6.787C5.00852 6.61648 4.98793 6.51791 4.96961 6.46563C4.95507 6.42415 4.94377 6.41549 4.9417 6.4139C4.94159 6.41382 4.94176 6.41395 4.9417 6.4139C4.92318 6.39827 4.79972 6.31788 4.35511 6.31788H3.65341C3.20881 6.31788 3.08559 6.39808 3.06707 6.41371C3.06701 6.41376 3.06718 6.41362 3.06707 6.41371C3.065 6.41529 3.05345 6.42415 3.03891 6.46563Z" fill="#0359FA"/>
</g>
<defs>
<clipPath id="clip0_419_21833">
<rect width="18" height="18" fill="white"/>
</clipPath>
</defs>
</svg>
